<?xml version="1.0" encoding="utf-8"?>
<svg id="svg" viewBox="0, 0, 134,36" xmlns="http://www.w3.org/2000/svg">
  <g id="svgg" transform="matrix(0.454081, 0, 0, 0.454081, -25.209166, -72.816048)">
    <path id="path0" d="M 119.17 160.996 C 117.228 161.311 116.874 164.046 118.66 164.948 L 118.953 165.096 L 118.953 167.546 C 118.953 170.329 118.925 170.133 119.316 170.133 C 119.652 170.133 119.924 169.985 119.958 169.784 C 119.972 169.701 119.974 168.613 119.964 167.368 L 119.944 165.104 L 120.248 164.958 C 122.192 164.024 121.91 161.291 119.839 160.992 C 119.501 160.943 119.497 160.943 119.17 160.996 M 129.797 161.887 C 128.28 162.295 127.746 164.254 128.839 165.409 C 129.053 165.636 129.444 165.902 129.64 165.955 C 129.767 165.989 129.857 168.515 129.765 169.481 L 129.739 169.765 L 129.058 169.625 C 128.217 169.451 126.758 169.241 125.918 169.173 C 125.571 169.145 125.277 169.113 125.265 169.101 C 125.253 169.09 125.243 168.186 125.243 167.093 C 125.243 164.782 125.252 164.821 124.76 164.821 C 124.261 164.821 124.262 164.812 124.233 167.501 C 124.2 170.397 124.134 170.171 125.026 170.243 C 126.899 170.393 129.655 170.929 131.186 171.44 C 136.22 173.119 139.939 175.516 143.618 179.45 C 144.547 180.442 145.305 181.427 146.3 182.932 C 147.208 184.306 147.169 184.241 147.612 185.131 C 149.886 189.705 150.814 193.599 150.829 198.648 C 150.836 200.911 150.692 202.05 150.036 204.914 C 149.963 205.235 149.912 205.524 149.925 205.556 C 149.943 205.604 151.147 205.614 156.801 205.614 C 160.571 205.614 163.687 205.626 163.724 205.64 C 163.846 205.687 163.583 205.968 160.822 208.739 L 158.641 210.928 L 153.319 210.916 L 147.995 210.903 L 147.819 211.234 C 147.722 211.417 147.614 211.647 147.579 211.746 L 147.515 211.926 L 151.421 211.937 C 153.569 211.943 155.933 211.941 156.676 211.933 C 158.487 211.914 158.518 211.918 158.805 212.202 C 158.929 212.326 159.304 212.681 159.638 212.991 C 159.972 213.302 160.911 214.214 161.726 215.02 C 162.54 215.825 163.666 216.912 164.229 217.436 C 164.792 217.96 165.541 218.673 165.893 219.021 C 166.758 219.874 167.109 219.978 167.296 219.435 C 167.403 219.123 167.356 219.05 166.557 218.285 C 166.27 218.01 165.546 217.305 164.947 216.717 C 164.349 216.13 163.643 215.443 163.38 215.192 C 163.116 214.941 162.274 214.127 161.508 213.383 C 160.742 212.638 160.002 211.925 159.865 211.798 C 159.581 211.535 159.575 211.517 159.718 211.324 C 160.013 210.924 165.292 205.614 165.395 205.614 C 165.526 205.614 166.065 206.099 167.495 207.506 C 168.226 208.225 169.098 209.068 169.432 209.378 C 169.767 209.688 170.454 210.349 170.958 210.846 C 171.522 211.402 171.937 211.776 172.035 211.816 C 172.173 211.874 172.833 211.883 177.379 211.883 L 182.564 211.883 L 183.505 210.923 C 184.641 209.762 184.547 209.822 184.824 210.07 C 185.993 211.122 187.953 210.003 187.699 208.428 C 187.338 206.185 184.168 206.537 184.168 208.821 C 184.168 208.932 184.12 208.991 183.862 209.195 C 183.693 209.328 183.231 209.752 182.835 210.137 L 182.115 210.837 L 177.266 210.839 L 172.418 210.841 L 172.035 210.456 C 171.448 209.866 168.646 207.15 168.278 206.813 C 167.623 206.215 167.277 205.87 167.277 205.814 C 167.277 205.728 167.714 205.332 167.933 205.22 C 168.157 205.105 168.075 205.109 170.439 205.124 L 172.099 205.135 L 172.13 205.298 C 172.426 206.892 174.918 207.339 175.896 205.974 C 177.442 203.815 174.437 201.387 172.603 203.313 C 172.397 203.53 172.212 203.814 172.171 203.978 C 172.143 204.088 172.135 204.09 171.767 204.09 C 169.013 204.094 167.189 204.208 166.719 204.405 L 166.384 204.545 L 163.935 204.558 C 162.588 204.566 161.486 204.556 161.486 204.536 C 161.486 204.516 162.28 203.71 163.251 202.744 L 165.015 200.986 L 165.003 199.08 L 164.991 197.175 L 164.882 197.057 C 164.822 196.992 164.43 196.631 164.011 196.255 C 163.592 195.879 162.761 195.103 162.165 194.53 L 161.08 193.489 L 162.14 193.437 L 163.2 193.384 L 163.486 193.575 C 164.096 193.981 164.433 194.314 164.513 194.587 C 164.755 195.419 165.338 195.867 166.185 195.871 C 167.793 195.878 168.675 193.96 167.551 192.898 C 166.755 192.145 165.797 192.156 165.034 192.927 L 164.73 193.235 L 164.367 192.918 C 164.168 192.743 163.902 192.55 163.777 192.489 L 163.55 192.377 L 162.072 192.411 C 161.259 192.43 160.414 192.434 160.195 192.422 L 159.797 192.401 L 159.194 191.835 C 158.863 191.524 158.203 190.887 157.73 190.42 L 156.868 189.571 L 156.875 188.864 L 156.882 188.156 L 159.504 188.156 C 162.565 188.156 162.908 188.171 162.949 188.304 C 163.431 189.889 165.599 190.124 166.448 188.684 C 166.846 188.009 166.74 186.989 166.214 186.422 C 165.382 185.526 163.731 185.751 163.21 186.831 C 163.165 186.925 163.114 187.032 163.097 187.068 C 163.07 187.125 162.672 187.134 159.969 187.144 L 156.872 187.155 L 156.872 186.796 L 156.873 186.437 L 156.314 185.892 C 156.007 185.593 155.201 184.819 154.522 184.173 L 153.287 182.997 L 150.585 182.984 L 147.882 182.97 L 147.673 182.614 C 147.361 182.081 146.14 180.373 145.974 180.238 C 145.834 180.124 145.906 180.031 146.906 179.047 L 147.912 178.056 L 151.597 178.06 C 155.901 178.064 155.694 178.052 155.763 178.317 C 156.232 180.146 158.802 180.336 159.66 178.606 C 160.534 176.842 158.643 174.982 156.844 175.838 C 156.442 176.03 156 176.466 155.887 176.784 L 155.806 177.011 L 151.668 177.011 L 147.53 177.011 L 146.378 178.142 C 145.745 178.764 145.214 179.273 145.2 179.274 C 145.185 179.275 144.941 179.019 144.657 178.706 C 144.373 178.393 143.959 177.97 143.737 177.766 C 143.514 177.562 143.332 177.375 143.332 177.35 C 143.332 177.298 143.607 177.007 144.818 175.771 C 145.288 175.292 145.82 174.743 146 174.552 L 146.328 174.203 L 146.539 174.285 C 149.29 175.349 151.553 172.181 149.493 170.149 C 147.438 168.122 144.127 170.523 145.388 173.126 C 145.607 173.579 145.737 173.39 144.031 175.112 C 143.276 175.876 142.632 176.527 142.599 176.56 C 142.551 176.61 142.475 176.558 142.117 176.227 C 141.734 175.873 141.276 175.499 140.15 174.625 C 139.944 174.465 139.548 174.177 139.271 173.986 C 138.666 173.568 138.737 173.798 138.751 172.301 L 138.763 171.053 L 138.926 171 C 141.229 170.254 140.729 166.848 138.319 166.87 C 135.977 166.892 135.394 170.211 137.59 171.023 L 137.791 171.098 L 137.772 172.041 C 137.762 172.56 137.75 172.999 137.746 173.016 C 137.741 173.033 137.405 172.859 136.998 172.63 C 134.972 171.489 132.758 170.547 131.142 170.138 L 130.816 170.055 L 130.806 168.908 C 130.801 168.277 130.809 167.368 130.822 166.889 L 130.847 166.019 L 131.132 165.89 C 133.542 164.799 132.343 161.202 129.797 161.887 M 119.988 162.075 C 120.905 162.548 120.728 163.871 119.72 164.08 C 118.703 164.291 118.024 162.945 118.802 162.261 C 119.115 161.985 119.651 161.901 119.988 162.075 M 130.68 162.871 C 131.082 162.99 131.449 163.498 131.454 163.944 C 131.47 165.125 129.896 165.486 129.355 164.425 C 128.916 163.564 129.742 162.595 130.68 162.871 M 113.031 164.726 C 111.189 165.334 111.077 167.821 112.858 168.549 C 113.154 168.671 113.153 168.669 113.158 169.985 C 113.161 170.49 113.175 171.024 113.191 171.171 L 113.218 171.439 L 113.444 171.439 C 113.68 171.439 114.076 171.328 114.13 171.247 C 114.148 171.221 114.163 170.631 114.164 169.937 L 114.166 168.674 L 114.52 168.502 C 115.157 168.191 115.57 167.623 115.694 166.886 C 115.923 165.529 114.383 164.281 113.031 164.726 M 114.054 165.696 C 114.763 166.03 114.905 166.937 114.329 167.458 C 113.521 168.188 112.257 167.369 112.616 166.35 C 112.823 165.764 113.522 165.446 114.054 165.696 M 104.586 166.086 C 102.637 166.487 102.407 169.222 104.254 170.026 L 104.531 170.147 L 104.561 170.673 C 104.577 170.963 104.587 172.022 104.582 173.028 C 104.574 174.782 104.596 175.344 104.68 175.569 C 104.759 175.779 105.259 175.578 105.524 175.229 C 105.606 175.122 105.61 175.019 105.621 172.603 C 105.633 170.211 105.637 170.089 105.712 170.089 C 106.023 170.089 106.726 169.503 106.953 169.055 C 107.747 167.489 106.34 165.724 104.586 166.086 M 105.364 167.066 C 106.555 167.419 106.314 169.222 105.077 169.218 C 103.931 169.213 103.588 167.516 104.651 167.113 C 104.99 166.985 105.072 166.979 105.364 167.066 M 138.761 167.959 C 139.2 168.158 139.428 168.507 139.428 168.979 C 139.427 170.223 137.83 170.552 137.318 169.414 C 136.903 168.494 137.845 167.545 138.761 167.959 M 97.158 169.869 C 94.562 170.28 94.464 174.027 97.037 174.471 C 97.568 174.563 98.289 174.44 98.642 174.197 C 98.69 174.164 98.752 174.138 98.781 174.138 C 98.81 174.138 99.64 174.936 100.625 175.912 C 101.61 176.888 102.453 177.704 102.498 177.724 C 102.594 177.77 103.28 177.188 103.28 177.061 C 103.28 176.98 101.234 174.962 99.8 173.628 L 99.563 173.408 L 99.678 173.022 C 100.216 171.224 98.911 169.592 97.158 169.869 M 78.861 170.028 C 77.715 170.336 77.112 171.581 77.615 172.599 C 78.044 173.468 78.924 173.819 79.887 173.506 L 80.258 173.385 L 80.983 174.101 C 81.771 174.879 82.214 175.305 83.133 176.168 C 83.918 176.905 86.588 179.477 87.171 180.059 L 87.629 180.516 L 93.828 180.516 C 99.748 180.516 100.029 180.512 100.075 180.438 C 100.102 180.394 100.246 180.183 100.396 179.967 C 100.546 179.752 100.668 179.557 100.668 179.534 C 100.668 179.508 98.331 179.493 94.376 179.493 L 88.085 179.493 L 87.464 178.894 C 87.122 178.565 86.658 178.121 86.431 177.907 C 85.819 177.33 84.301 175.861 81.435 173.071 L 80.987 172.635 L 81.058 172.331 C 81.387 170.926 80.189 169.671 78.861 170.028 M 148.321 170.586 C 148.965 170.881 149.343 171.59 149.209 172.25 C 148.911 173.715 146.935 173.939 146.288 172.582 C 145.674 171.296 147.008 169.985 148.321 170.586 M 110.567 170.651 C 110.338 170.791 110.282 171.25 110.371 172.244 L 110.398 172.549 L 110.628 172.539 C 111.252 172.513 111.396 172.325 111.367 171.579 C 111.331 170.653 111.067 170.347 110.567 170.651 M 98.039 170.957 C 98.723 171.259 99.026 172.059 98.709 172.724 C 98.122 173.953 96.295 173.62 96.154 172.257 C 96.055 171.294 97.127 170.555 98.039 170.957 M 79.578 171.049 C 79.968 171.193 80.181 171.65 80.055 172.074 C 79.799 172.939 78.417 172.743 78.422 171.843 C 78.426 171.258 79.025 170.846 79.578 171.049 M 120.803 172.006 C 114.508 172.396 108.238 175.069 104.113 179.121 C 102.448 180.756 101.41 182.008 100.265 183.759 C 99.417 185.057 98.486 186.859 97.895 188.352 C 94.902 195.902 95.419 204.222 99.309 211.121 C 99.822 212.032 100.12 212.501 101.102 213.944 C 101.36 214.323 102.192 215.366 102.409 215.583 C 102.421 215.595 102.617 215.811 102.844 216.062 C 104.942 218.385 107.916 220.57 111.138 222.156 C 115.051 224.082 119.763 224.948 124.545 224.621 C 125.53 224.554 125.968 224.499 127.208 224.291 C 130.738 223.699 134.251 222.278 137.395 220.173 C 138.153 219.665 139.588 218.594 139.588 218.536 C 139.588 218.322 140.29 218.932 142.278 220.873 C 143.181 221.755 143.064 221.698 143.343 221.388 C 143.469 221.249 143.849 220.85 144.187 220.503 C 145.201 219.463 145.683 218.874 145.683 218.675 C 145.683 218.548 145.51 218.353 144.833 217.72 C 143.915 216.86 142.763 215.693 142.739 215.598 C 142.708 215.476 142.75 215.408 143.119 214.973 C 144.489 213.361 146.006 210.845 146.918 208.672 C 150.426 200.317 149.551 190.843 144.602 183.585 C 141.067 178.403 136.039 174.734 130.12 173.021 C 128.68 172.604 127.05 172.281 125.309 172.067 C 124.659 171.987 121.739 171.948 120.803 172.006 M 89.258 173.023 C 87.716 173.466 87.228 175.39 88.365 176.537 C 89.623 177.804 91.727 176.981 91.903 175.152 C 92.036 173.778 90.614 172.633 89.258 173.023 M 167.842 173.106 C 165.783 173.575 165.751 176.536 167.8 177.008 C 169.374 177.371 170.706 175.635 169.981 174.165 C 169.595 173.382 168.662 172.92 167.842 173.106 M 90.346 174.065 C 90.826 174.303 91.061 175.039 90.811 175.524 C 90.27 176.569 88.761 176.206 88.761 175.031 C 88.761 174.187 89.581 173.687 90.346 174.065 M 168.669 174.16 C 169.354 174.518 169.343 175.613 168.651 175.927 C 167.853 176.289 167.079 175.57 167.322 174.694 C 167.463 174.187 168.178 173.904 168.669 174.16 M 124.98 175.613 C 132.371 176.506 138.3 180.249 142.056 186.393 C 147.353 195.055 146.073 206.773 139.046 213.966 C 135.139 217.965 130.201 220.386 124.721 220.989 C 124.034 221.065 121.113 221.065 120.476 220.99 C 114.656 220.299 109.876 218.024 106.084 214.139 C 98.222 206.086 97.451 193.703 104.241 184.534 C 104.517 184.162 104.583 184.08 105.172 183.371 C 105.629 182.822 106.938 181.516 107.459 181.088 C 107.687 180.901 107.961 180.675 108.069 180.585 C 111.214 177.96 115.678 176.101 119.954 175.635 C 120.301 175.598 120.732 175.551 120.912 175.531 C 121.576 175.459 124.13 175.51 124.98 175.613 M 158.209 176.715 C 159.299 177.228 158.963 178.796 157.764 178.796 C 156.55 178.796 156.24 177.172 157.361 176.684 C 157.58 176.589 157.97 176.603 158.209 176.715 M 120.846 177.383 C 113.227 178.026 106.843 182.34 103.586 189.049 C 103.005 190.246 102.705 190.965 102.433 191.813 C 101.075 196.053 101.073 200.825 102.429 204.895 C 103.344 207.64 104.489 209.575 106.612 211.97 C 107.374 212.829 107.99 213.362 107.393 212.645 C 106.9 212.054 106.314 211.167 105.666 210.032 C 103.047 205.45 102.227 200.344 103.301 195.318 C 103.925 192.4 104.987 189.982 106.814 187.322 C 107.575 186.214 109.752 184.023 110.746 183.364 C 110.866 183.285 111.074 183.136 111.209 183.034 C 112.449 182.092 114.443 181.08 116.342 180.43 C 122.127 178.448 128.792 179.451 133.754 183.053 C 137.378 185.683 139.809 189.099 141.119 193.402 C 142.933 199.363 141.75 206.278 138.103 211.025 C 135.698 214.154 132.105 216.705 128.334 217.958 C 126.578 218.542 125.785 218.711 123.459 218.996 L 122.979 219.055 L 123.741 219.06 C 134.035 219.13 142.385 211.207 143.488 200.324 C 144.204 193.259 141.229 186.26 135.6 181.77 C 131.649 178.618 126.026 176.947 120.846 177.383 M 78.791 178.024 C 78.638 178.155 78.602 178.421 78.706 178.642 C 78.819 178.879 79.678 179.728 82.209 182.105 C 82.604 182.476 83.398 183.23 83.973 183.781 C 84.548 184.332 85.111 184.866 85.224 184.968 C 85.492 185.209 85.571 185.087 84.418 186.226 C 81.349 189.26 80.173 190.463 79.77 190.985 C 79.357 191.518 79.053 191.636 78.413 191.51 C 77.895 191.408 77.826 191.359 76.767 190.319 C 76.324 189.884 75.6 189.185 75.157 188.766 C 74.715 188.347 74.098 187.757 73.786 187.456 L 73.218 186.908 L 72.221 186.879 C 71.673 186.863 69.362 186.85 67.087 186.85 L 62.949 186.85 L 61.836 187.96 C 60.686 189.107 60.66 189.127 60.51 188.987 C 59.745 188.273 58.381 188.61 57.903 189.629 C 57.057 191.432 59.361 193.026 60.766 191.61 C 61.165 191.208 61.368 190.646 61.279 190.195 L 61.235 189.968 L 62.27 188.934 C 62.839 188.365 63.351 187.888 63.408 187.874 C 63.464 187.859 65.59 187.863 68.13 187.882 L 72.749 187.917 L 73.528 188.656 C 74.744 189.81 76.184 191.193 77.017 192.007 C 77.335 192.317 77.606 192.609 77.621 192.656 C 77.648 192.743 76.706 193.698 76.332 193.964 C 76.061 194.156 73.269 194.186 73.214 193.997 C 72.765 192.465 70.424 192.142 69.501 193.484 C 68.211 195.358 70.18 197.646 72.172 196.588 C 72.652 196.333 73.241 195.608 73.241 195.273 C 73.241 195.132 73.344 195.122 74.824 195.12 C 76.648 195.119 76.682 195.113 76.982 194.766 C 77.113 194.614 77.566 194.138 77.988 193.707 C 78.411 193.276 78.846 192.804 78.956 192.658 C 79.18 192.361 79.581 191.979 79.787 191.866 C 79.931 191.787 85.605 191.746 85.605 191.824 C 85.605 191.841 84.474 192.986 83.091 194.367 L 80.576 196.878 L 80.525 198.969 C 80.497 200.12 80.487 201.083 80.503 201.109 C 80.52 201.136 80.729 201.331 80.968 201.544 C 81.601 202.105 81.901 202.392 83.95 204.396 C 86.753 207.136 86.975 207.35 87.17 207.499 L 87.35 207.638 L 84.834 207.651 C 83.45 207.658 82.235 207.652 82.133 207.637 L 81.948 207.611 L 81.948 207.403 C 81.948 205.7 80.014 204.708 78.875 205.827 C 77.87 206.812 78.306 208.42 79.692 208.841 C 80.23 209.004 81.105 208.776 81.294 208.423 C 81.366 208.289 81.438 208.285 81.604 208.403 C 82.004 208.688 81.936 208.682 85.161 208.686 L 88.092 208.69 L 88.593 209.187 C 89.258 209.848 89.212 209.717 89.185 210.882 L 89.163 211.861 L 86.698 211.852 C 83.609 211.84 83.254 211.824 83.254 211.691 C 83.254 211.014 82.175 210.316 81.324 210.444 C 79.66 210.694 79.134 212.706 80.453 213.78 C 81.372 214.529 83.034 214.088 83.252 213.037 L 83.279 212.906 L 84.366 212.874 C 84.964 212.857 86.293 212.855 87.32 212.869 L 89.188 212.896 L 90.433 214.135 C 91.118 214.816 91.726 215.406 91.785 215.446 C 91.881 215.511 92.212 215.52 95.223 215.54 L 98.554 215.562 L 98.905 216.07 C 99.098 216.35 99.389 216.747 99.552 216.952 C 99.715 217.157 99.841 217.342 99.833 217.362 C 99.826 217.382 99.368 217.817 98.818 218.329 C 98.267 218.841 97.668 219.411 97.486 219.597 L 97.157 219.934 L 96.289 219.963 C 95.812 219.979 94.156 219.977 92.609 219.959 L 89.795 219.926 L 89.747 219.765 C 89.238 218.067 86.662 217.817 85.91 219.392 C 84.786 221.747 87.859 223.721 89.422 221.647 C 89.599 221.413 89.696 221.241 89.705 221.147 C 89.725 220.937 89.688 220.939 93.528 220.969 C 95.432 220.983 97.104 220.981 97.243 220.963 L 97.497 220.931 L 98.266 220.208 C 98.689 219.811 99.192 219.335 99.384 219.151 C 99.929 218.628 100.508 218.108 100.546 218.108 C 100.565 218.108 100.992 218.523 101.495 219.029 L 102.41 219.95 L 102.305 220.085 C 102.095 220.355 99.353 223.087 98.439 223.937 L 98.192 224.167 L 97.808 224.071 C 96.515 223.744 95.272 224.227 94.718 225.273 C 93.491 227.587 95.781 230.009 98.143 228.895 C 99.475 228.266 99.966 226.732 99.276 225.355 C 99.156 225.115 99.057 224.893 99.057 224.862 C 99.057 224.786 103.155 220.678 103.231 220.678 C 103.265 220.677 103.431 220.8 103.601 220.951 C 103.772 221.102 104.054 221.341 104.227 221.482 L 104.543 221.739 L 104.532 226.376 L 104.521 231.013 L 104.385 231.041 C 103.524 231.217 102.779 232.355 102.932 233.261 C 103.176 234.705 104.544 235.384 105.892 234.73 C 107.404 233.996 107.253 231.611 105.664 231.108 C 105.592 231.086 105.588 230.842 105.588 226.789 C 105.588 222.541 105.588 222.496 105.672 222.554 C 106.482 223.125 107.845 223.956 108.787 224.456 L 109.44 224.802 L 109.451 227.231 C 109.464 229.907 109.446 229.742 109.732 229.889 C 109.996 230.026 110.332 229.902 110.439 229.628 C 110.477 229.529 110.494 228.923 110.499 227.406 C 110.503 226.259 110.516 225.312 110.527 225.3 C 110.538 225.289 110.654 225.331 110.786 225.393 C 111.729 225.839 114.893 226.902 115.279 226.902 C 115.345 226.902 115.369 231.447 115.311 232.978 L 115.283 233.722 L 114.425 234.608 L 113.567 235.495 L 113.419 235.432 C 113.105 235.3 112.228 235.347 111.888 235.514 C 110.172 236.359 110.646 238.958 112.531 239.041 C 113.74 239.094 114.573 238.325 114.575 237.155 C 114.576 236.743 114.562 236.65 114.479 236.49 C 114.32 236.186 114.311 236.199 115.354 235.137 L 116.326 234.146 L 116.355 233.282 C 116.371 232.806 116.384 231.235 116.384 229.79 L 116.384 227.162 L 116.482 227.183 C 116.943 227.282 118.149 227.484 118.561 227.531 C 118.693 227.546 118.869 227.569 118.953 227.581 L 119.105 227.603 L 119.097 231.138 C 119.093 233.258 119.106 234.738 119.131 234.834 C 119.215 235.159 119.617 235.302 119.932 235.12 L 120.106 235.019 L 120.128 231.378 C 120.14 229.375 120.16 227.729 120.171 227.719 C 120.183 227.709 120.448 227.719 120.759 227.74 C 121.071 227.762 122.143 227.771 123.143 227.761 L 124.961 227.743 L 124.961 230.784 C 124.961 233.65 124.956 233.825 124.884 233.825 C 124.583 233.829 123.871 234.444 123.654 234.886 C 122.802 236.63 124.622 238.481 126.375 237.653 C 127.369 237.183 127.842 235.943 127.39 234.992 C 127.125 234.433 126.441 233.825 126.08 233.825 C 125.996 233.825 125.995 233.783 126.013 230.723 L 126.032 227.621 L 126.247 227.589 C 126.365 227.572 126.789 227.509 127.188 227.448 C 127.587 227.387 127.942 227.338 127.976 227.338 C 128.023 227.338 128.045 227.427 128.065 227.707 C 128.1 228.206 128.152 228.298 128.782 228.963 C 129.535 229.758 129.493 229.651 129.254 230.134 C 128.812 231.031 128.915 231.865 129.555 232.556 C 131.278 234.418 134.171 232.083 132.713 230.007 C 132.211 229.292 131.513 229.025 130.549 229.18 L 130.325 229.216 L 129.975 228.784 C 129.782 228.546 129.536 228.274 129.427 228.178 C 129.193 227.971 129.161 227.898 129.123 227.464 L 129.094 227.134 L 129.432 227.036 C 131.652 226.397 133.384 225.802 134.56 225.272 C 134.632 225.239 134.812 225.162 134.96 225.1 C 135.68 224.8 137.259 223.948 138.347 223.274 L 138.739 223.031 L 138.764 225.391 C 138.801 228.975 138.77 230.603 138.664 230.603 C 138.346 230.603 137.674 231.183 137.444 231.656 C 136.541 233.517 138.635 235.307 140.426 234.205 C 141.759 233.385 141.524 231.087 140.063 230.656 L 139.807 230.581 L 139.796 226.576 C 139.789 224.373 139.79 222.556 139.798 222.538 C 139.823 222.476 139.991 222.601 140.472 223.038 C 141.285 223.776 141.515 223.795 141.744 223.14 L 141.842 222.858 L 141.749 222.736 C 141.697 222.669 141.46 222.429 141.22 222.202 C 140.981 221.975 140.547 221.555 140.255 221.269 L 139.724 220.749 L 139.536 220.872 C 139.433 220.94 139.143 221.143 138.892 221.324 C 135.924 223.459 131.776 225.238 128.137 225.938 C 123.251 226.879 118.568 226.615 113.874 225.136 C 105.963 222.644 99.284 216.475 96.228 208.835 C 94.045 203.379 93.587 196.913 94.989 191.37 C 95.137 190.784 95.154 190.824 94.736 190.791 C 94.539 190.776 91.452 190.749 87.876 190.733 L 81.376 190.703 L 83.766 188.309 C 85.081 186.992 86.198 185.86 86.247 185.793 L 86.337 185.673 L 91.141 185.674 C 93.783 185.675 96.173 185.663 96.451 185.647 L 96.959 185.619 L 97.159 185.172 C 97.269 184.927 97.359 184.705 97.359 184.678 C 97.359 184.643 96.029 184.629 92.516 184.629 C 89.852 184.628 87.36 184.616 86.977 184.601 L 86.281 184.575 L 85.715 184.047 C 85.403 183.757 84.824 183.206 84.429 182.823 C 84.034 182.44 83.486 181.911 83.211 181.647 C 82.936 181.384 82.466 180.932 82.166 180.644 C 81.867 180.355 81.194 179.72 80.672 179.233 C 80.151 178.746 79.705 178.313 79.683 178.272 C 79.531 177.987 79.004 177.841 78.791 178.024 M 68.894 178.151 C 68.264 178.222 67.669 178.67 67.352 179.31 L 67.168 179.682 L 67.168 180.21 C 67.168 182.078 69.36 182.914 70.647 181.538 C 71.924 180.174 70.766 177.938 68.894 178.151 M 69.553 179.204 C 70.192 179.477 70.382 180.422 69.896 180.911 C 69.264 181.546 68.153 181.117 68.148 180.238 C 68.144 179.452 68.874 178.915 69.553 179.204 M 178.554 181.238 C 177.914 181.364 177.137 182.004 177.012 182.507 L 176.983 182.627 L 174.745 182.627 L 172.508 182.627 L 169.632 185.49 C 166.31 188.796 166.6 188.42 166.644 189.367 L 166.675 190.034 L 166.241 190.462 C 165.661 191.036 165.48 191.447 165.619 191.869 C 165.762 192.303 165.908 192.231 166.9 191.237 L 167.725 190.411 L 167.7 189.73 C 167.665 188.794 167.42 189.124 170.31 186.225 L 172.843 183.685 L 173.179 183.657 C 173.64 183.618 176.822 183.622 176.878 183.662 C 176.903 183.679 176.95 183.782 176.981 183.89 C 177.573 185.918 180.483 185.772 180.972 183.689 C 181.291 182.325 179.95 180.965 178.554 181.238 M 179.303 182.279 C 180.422 182.697 180.141 184.325 178.95 184.325 C 178.65 184.325 178.442 184.248 178.225 184.057 C 177.353 183.292 178.215 181.872 179.303 182.279 M 153.23 184.4 C 153.452 184.61 154.08 185.193 154.627 185.696 C 155.59 186.581 155.781 186.78 155.725 186.836 C 155.685 186.876 150.735 186.911 150.251 186.874 L 149.833 186.843 L 149.647 186.379 C 149.437 185.858 148.954 184.87 148.682 184.404 C 148.545 184.169 148.516 184.089 148.56 184.062 C 148.591 184.042 149.564 184.024 150.722 184.022 L 152.827 184.017 L 153.23 184.4 M 114.963 186.505 C 114.497 186.564 114.06 186.896 113.728 187.445 L 113.576 187.696 L 113.564 189.905 L 113.552 192.115 L 110.951 192.127 L 108.35 192.14 L 108.05 192.287 C 107.658 192.48 107.174 192.954 106.998 193.315 L 106.872 193.576 L 106.837 195.514 C 106.784 198.46 106.801 198.652 107.142 199.07 C 107.445 199.44 107.556 199.485 109.788 200.144 C 110.387 200.321 111.484 200.645 112.226 200.865 C 112.969 201.085 113.977 201.383 114.469 201.527 C 114.96 201.671 115.88 201.943 116.514 202.132 C 118.036 202.585 118.883 202.823 118.903 202.803 C 118.913 202.795 118.928 202.703 118.938 202.601 C 118.992 202.057 119.275 201.593 119.788 201.211 C 120.189 200.911 120.22 200.908 122.418 200.922 L 124.373 200.934 L 124.704 201.092 C 125.29 201.372 125.763 201.954 125.882 202.541 C 125.908 202.675 125.952 202.784 125.979 202.784 C 126.104 202.784 127.017 202.539 127.703 202.321 C 128.122 202.189 128.729 202.001 129.053 201.906 C 130.087 201.6 130.677 201.425 131.012 201.325 C 131.455 201.192 134.798 200.223 135.822 199.93 C 137.16 199.548 137.536 199.324 137.813 198.746 C 137.927 198.508 137.991 194.676 137.895 193.821 C 137.824 193.179 137.377 192.561 136.769 192.262 L 136.519 192.14 L 134.037 192.113 C 132.672 192.098 131.483 192.083 131.394 192.08 L 131.232 192.074 L 131.22 189.859 L 131.208 187.643 L 130.993 187.329 C 130.777 187.013 130.503 186.773 130.141 186.583 L 129.945 186.48 L 122.588 186.476 C 118.541 186.473 115.11 186.487 114.963 186.505 M 165.188 186.948 C 165.698 187.206 165.825 187.976 165.424 188.388 C 165.01 188.816 164.274 188.723 164.032 188.213 C 163.65 187.411 164.426 186.563 165.188 186.948 M 155.829 188.888 C 155.82 190.087 155.675 189.831 157.254 191.376 L 158.502 192.597 L 158.142 192.597 L 157.783 192.597 L 157.273 192.111 C 156.662 191.529 156.15 191.085 156.001 191.009 C 155.829 190.922 155.29 190.9 153.16 190.895 L 151.169 190.889 L 151.128 190.731 C 151.105 190.644 151.045 190.408 150.994 190.207 C 150.906 189.856 150.645 189.05 150.381 188.314 C 150.312 188.119 150.255 187.945 150.254 187.927 C 150.254 187.909 151.51 187.899 153.045 187.906 L 155.836 187.917 L 155.829 188.888 M 129.239 188.417 C 129.25 188.429 129.27 189.267 129.283 190.279 L 129.307 192.118 L 122.366 192.118 L 115.426 192.118 L 115.426 190.243 L 115.426 188.369 L 122.323 188.382 C 126.116 188.39 129.228 188.405 129.239 188.417 M 59.896 189.74 C 60.752 190.199 60.045 191.442 59.163 191.028 C 58.585 190.756 58.65 189.789 59.256 189.655 C 59.321 189.641 59.394 189.623 59.418 189.616 C 59.504 189.591 59.726 189.649 59.896 189.74 M 93.505 192.068 C 93.18 193.457 92.875 196.772 92.875 198.9 L 92.875 199.697 L 92.005 199.69 L 91.136 199.683 L 91.026 199.445 C 90.462 198.213 88.678 197.936 87.677 198.924 C 86.448 200.136 87.18 202.134 88.93 202.349 C 89.878 202.465 90.984 201.734 91.127 200.897 L 91.158 200.716 L 92.054 200.704 L 92.95 200.692 L 92.979 201.009 C 93.039 201.672 93.272 203.229 93.449 204.146 C 93.522 204.525 93.575 204.838 93.566 204.843 C 93.557 204.848 91.806 204.842 89.674 204.83 L 85.799 204.808 L 85.626 204.612 C 85.39 204.342 85.115 204.071 84.081 203.089 C 83.59 202.622 82.812 201.868 82.351 201.413 L 81.514 200.585 L 81.542 198.985 L 81.57 197.383 L 81.813 197.112 C 81.946 196.963 82.464 196.43 82.964 195.927 C 84.458 194.425 86.767 192.061 86.867 191.933 L 86.961 191.813 L 90.262 191.813 L 93.564 191.813 L 93.505 192.068 M 154.764 191.955 L 155.509 191.965 L 155.766 192.182 C 155.907 192.301 156.277 192.658 156.589 192.974 C 157.272 193.67 157.235 193.653 157.995 193.598 C 158.323 193.575 158.834 193.555 159.13 193.555 L 159.669 193.555 L 160.219 194.088 C 161.079 194.922 162.898 196.669 163.402 197.145 C 164.07 197.776 164.009 197.574 164.012 199.189 L 164.015 200.572 L 162.237 202.342 C 161.259 203.316 160.372 204.215 160.265 204.34 L 160.071 204.569 L 155.729 204.58 C 153.341 204.586 151.386 204.588 151.386 204.585 C 151.386 204.582 151.444 204.298 151.515 203.954 C 151.887 202.136 152.082 200.235 152.082 198.419 L 152.083 197.732 L 152.938 197.744 L 153.793 197.756 L 153.843 197.952 C 154.411 200.17 157.811 199.838 157.908 197.555 C 158 195.394 154.986 194.585 154.07 196.526 L 153.952 196.776 L 153.551 196.776 C 153.33 196.776 152.902 196.763 152.599 196.748 L 152.049 196.719 L 152.02 196.171 C 151.975 195.332 151.567 192.483 151.431 192.067 C 151.41 192.003 151.4 191.945 151.408 191.937 C 151.422 191.923 153.195 191.932 154.764 191.955 M 180.087 193.314 C 179.498 193.48 179.026 193.901 178.884 194.388 C 178.852 194.496 177.505 194.525 173.438 194.507 L 169.969 194.49 L 169.844 194.63 C 169.601 194.901 169.648 195.32 169.936 195.458 C 170.023 195.499 171.029 195.512 174.377 195.514 C 176.758 195.516 178.725 195.531 178.749 195.548 C 178.773 195.565 178.841 195.686 178.901 195.816 C 179.503 197.134 181.491 197.125 182.146 195.801 C 182.827 194.423 181.564 192.898 180.087 193.314 M 166.549 193.442 C 167.32 193.777 167.08 194.957 166.253 194.892 C 165.733 194.851 165.513 194.599 165.542 194.078 C 165.575 193.503 166.03 193.216 166.549 193.442 M 71.758 193.753 C 72.878 194.363 72.246 196.101 71.004 195.823 C 70.31 195.668 69.955 195.061 70.146 194.354 C 70.315 193.724 71.14 193.417 71.758 193.753 M 180.872 194.311 C 181.273 194.483 181.424 195.001 181.197 195.426 C 180.92 195.942 180.132 195.943 179.866 195.427 C 179.512 194.738 180.168 194.01 180.872 194.311 M 156.328 196.487 C 157.189 196.888 157.1 198.148 156.191 198.412 C 155.436 198.632 154.782 198.146 154.782 197.366 C 154.782 196.683 155.667 196.179 156.328 196.487 M 168.331 197.52 C 167.769 197.741 167.343 198.349 167.343 198.931 C 167.343 200.226 168.988 200.86 169.922 199.924 C 171.05 198.795 169.819 196.935 168.331 197.52 M 76.539 198.757 C 74.504 199.27 74.49 202.027 76.519 202.481 C 77.846 202.778 79.024 201.689 78.812 200.361 C 78.643 199.305 77.518 198.511 76.539 198.757 M 89.411 199.305 C 90.08 199.474 90.395 200.435 89.955 200.967 C 89.492 201.529 88.556 201.445 88.241 200.814 C 87.834 199.996 88.54 199.085 89.411 199.305 M 77.395 199.841 C 78.138 200.277 77.961 201.361 77.122 201.52 C 76.478 201.642 75.958 201.13 76.047 200.46 C 76.131 199.824 76.823 199.506 77.395 199.841 M 137.302 201.166 C 137.161 201.193 134.148 202.061 133.276 202.326 C 131.459 202.879 130.12 203.28 128.552 203.74 C 126.151 204.446 125.919 204.524 125.898 204.632 C 125.888 204.681 125.87 205.103 125.857 205.57 C 125.816 207.085 125.434 207.717 124.438 207.915 C 124.031 207.996 120.549 207.992 120.273 207.91 C 119.779 207.764 119.331 207.352 119.072 206.805 L 118.931 206.506 L 118.926 205.572 L 118.922 204.637 L 118.796 204.582 C 118.622 204.507 116.822 203.924 115.949 203.66 C 115.182 203.427 114.408 203.202 111.682 202.414 C 110.736 202.14 109.62 201.815 109.201 201.692 C 107.601 201.222 107.436 201.174 107.382 201.174 C 107.337 201.173 107.329 201.774 107.339 204.232 L 107.351 207.29 L 107.467 207.511 C 107.625 207.81 108.102 208.509 108.476 208.988 C 109.155 209.859 110.581 211.512 111.02 211.937 L 111.367 212.275 L 122.093 212.272 C 127.992 212.271 132.954 212.255 133.119 212.237 L 133.42 212.203 L 133.794 211.811 C 134.218 211.366 134.808 210.697 135.288 210.117 C 135.467 209.901 135.763 209.553 135.944 209.344 C 136.361 208.866 136.943 208.083 137.194 207.663 L 137.387 207.34 L 137.404 204.355 C 137.422 201.033 137.426 201.143 137.302 201.166 M 120.672 202.427 C 120.399 202.474 120.394 202.51 120.396 204.46 C 120.398 206.286 120.404 206.349 120.565 206.427 C 120.692 206.488 124.089 206.523 124.264 206.465 C 124.438 206.408 124.437 206.416 124.437 204.565 C 124.438 202.691 124.424 202.549 124.239 202.478 C 124.115 202.431 120.916 202.386 120.672 202.427 M 64.897 202.699 C 63.193 203.036 62.943 205.507 64.549 206.15 C 65.448 206.511 66.841 205.885 66.841 205.121 C 66.841 204.905 66.671 204.912 71.691 204.903 L 76.417 204.895 L 76.513 204.799 C 76.676 204.636 76.681 204.233 76.521 204.063 L 76.397 203.93 L 74.569 203.9 C 73.563 203.883 71.429 203.871 69.827 203.873 L 66.913 203.876 L 66.783 203.632 C 66.413 202.944 65.627 202.555 64.897 202.699 M 174.59 203.683 C 175.12 203.901 175.404 204.558 175.201 205.101 C 174.775 206.237 173.064 205.943 173.068 204.734 C 173.07 203.912 173.845 203.377 174.59 203.683 M 65.64 203.885 C 66.311 204.259 65.933 205.341 65.161 205.254 C 64.633 205.195 64.354 204.795 64.493 204.294 C 64.627 203.813 65.165 203.621 65.64 203.885 M 94.158 206.985 C 94.356 207.584 94.658 208.397 94.829 208.792 C 94.999 209.187 95.139 209.534 95.139 209.565 C 95.139 209.625 91.793 209.645 90.736 209.591 L 90.186 209.562 L 90.163 209.393 C 90.142 209.238 90.004 209.086 88.548 207.63 C 87.672 206.754 86.936 206.014 86.912 205.985 C 86.878 205.945 87.077 205.931 87.792 205.923 C 88.3 205.918 88.724 205.904 88.735 205.894 C 88.746 205.883 89.889 205.879 91.276 205.886 L 93.797 205.897 L 94.158 206.985 M 80.469 206.495 C 80.846 206.685 80.985 207.275 80.72 207.562 C 80.367 207.946 79.635 207.901 79.421 207.482 C 79.081 206.815 79.787 206.151 80.469 206.495 M 186.249 208.026 C 186.943 208.389 186.802 209.318 186.037 209.423 C 185.354 209.517 184.951 208.695 185.421 208.167 C 185.592 207.975 186.014 207.904 186.249 208.026 M 76.411 212.577 L 73.362 215.627 L 71.194 215.627 L 69.026 215.627 L 68.852 215.311 C 68.34 214.381 67.104 214.042 66.139 214.567 C 64.508 215.455 64.961 217.943 66.815 218.279 C 67.754 218.449 68.86 217.72 69.011 216.83 L 69.042 216.65 L 71.414 216.627 C 72.718 216.614 73.794 216.599 73.805 216.594 C 73.825 216.584 76.176 214.241 78.448 211.965 C 80.023 210.388 79.958 210.469 79.927 210.104 C 79.897 209.741 79.792 209.558 79.603 209.54 C 79.468 209.527 79.318 209.669 76.411 212.577 M 94.149 210.62 L 95.575 210.62 L 95.887 211.262 C 96.386 212.289 97.285 213.849 97.626 214.283 C 97.695 214.371 97.751 214.454 97.751 214.468 C 97.751 214.483 96.506 214.495 94.985 214.495 L 92.218 214.495 L 91.198 213.461 L 90.179 212.427 L 90.178 211.495 L 90.176 210.563 L 91.449 210.591 C 92.15 210.607 93.365 210.62 94.149 210.62 M 81.891 211.494 C 82.332 211.66 82.521 212.244 82.292 212.731 C 81.943 213.473 80.775 213.152 80.739 212.304 C 80.712 211.661 81.278 211.262 81.891 211.494 M 157.54 214.034 C 155.518 214.525 155.409 217.439 157.387 218.106 C 158.224 218.388 159.288 218.02 159.785 217.277 C 160.843 215.692 159.386 213.587 157.54 214.034 M 145.723 214.642 C 145.563 214.826 145.161 215.424 145.161 215.477 C 145.161 215.54 146.509 215.583 148.462 215.583 L 149.921 215.583 L 150.773 216.421 C 151.242 216.882 151.822 217.446 152.061 217.673 L 152.496 218.087 L 152.518 219.517 L 152.54 220.948 L 152.71 221.095 C 152.9 221.259 153.055 221.283 153.258 221.178 C 153.522 221.041 153.519 221.06 153.519 219.432 C 153.519 217.37 153.638 217.705 152.545 216.683 C 152.039 216.211 151.339 215.544 150.99 215.203 L 150.354 214.582 L 149.462 214.582 C 148.972 214.582 147.953 214.569 147.198 214.553 L 145.825 214.525 L 145.723 214.642 M 158.51 215.096 C 159.68 215.693 159.058 217.419 157.769 217.152 C 156.678 216.925 156.63 215.349 157.705 215.021 C 157.916 214.957 158.308 214.994 158.51 215.096 M 67.542 215.423 C 68.457 215.906 68.147 217.233 67.119 217.236 C 66.516 217.239 66.145 216.899 66.145 216.345 C 66.145 215.57 66.889 215.079 67.542 215.423 M 175.265 216.513 C 174.083 216.908 173.549 218.089 174.063 219.175 C 174.921 220.99 177.682 220.29 177.586 218.281 C 177.529 217.086 176.316 216.162 175.265 216.513 M 176.06 217.523 C 176.835 217.846 176.747 219.038 175.939 219.175 C 175.38 219.269 174.873 218.877 174.885 218.359 C 174.9 217.727 175.51 217.293 176.06 217.523 M 147.46 219.255 C 147.112 219.353 146.956 219.492 145.094 221.357 C 142.831 223.624 142.872 223.568 143.027 224.185 C 143.246 225.06 143.448 225.306 145.726 227.472 C 146.241 227.961 147.208 228.89 147.875 229.536 C 148.543 230.183 149.376 230.984 149.726 231.318 C 150.989 232.519 151.334 232.851 152.126 233.626 C 152.569 234.059 153.197 234.667 153.521 234.978 C 153.845 235.289 154.489 235.913 154.953 236.363 C 156.918 238.274 157.647 238.297 159.304 236.501 C 159.48 236.31 160.068 235.703 160.611 235.152 C 161.912 233.83 162.029 233.605 161.918 232.615 C 161.848 231.998 161.808 231.95 159.615 229.838 C 159.268 229.505 158.612 228.869 158.156 228.425 C 157.701 227.982 157.035 227.335 156.676 226.988 C 156.317 226.642 155.484 225.827 154.825 225.179 C 154.167 224.53 153.364 223.757 153.04 223.46 C 152.423 222.893 151.117 221.624 149.799 220.306 C 148.723 219.232 148.266 219.027 147.46 219.255 M 88.196 219.41 C 89.105 219.812 89.019 221.163 88.065 221.44 C 87.324 221.656 86.669 221.163 86.674 220.394 C 86.679 219.547 87.421 219.068 88.196 219.41 M 77.649 222.396 C 76.133 222.821 75.638 224.632 76.751 225.684 C 78.04 226.904 80.107 225.945 80.023 224.167 C 79.965 222.966 78.777 222.08 77.649 222.396 M 78.585 223.468 C 79.273 223.802 79.171 224.954 78.435 225.158 C 77.716 225.358 77.163 224.921 77.21 224.188 C 77.253 223.519 77.943 223.158 78.585 223.468 M 97.666 225.144 C 98.642 225.605 98.874 226.752 98.166 227.616 C 97.505 228.422 96.082 228.241 95.573 227.285 C 94.869 225.965 96.301 224.501 97.666 225.144 M 131.463 230.184 C 132.33 230.547 132.324 231.839 131.452 232.147 C 130.179 232.596 129.434 230.771 130.664 230.215 C 130.893 230.111 131.254 230.097 131.463 230.184 M 139.708 231.54 C 140.281 231.78 140.501 232.58 140.14 233.115 C 139.665 233.82 138.497 233.592 138.285 232.753 C 138.088 231.971 138.96 231.228 139.708 231.54 M 105.28 232.025 C 106.306 232.441 106.054 233.938 104.954 233.967 C 103.884 233.994 103.52 232.551 104.471 232.052 C 104.745 231.908 104.974 231.901 105.28 232.025 M 125.981 234.863 C 126.939 235.401 126.655 236.773 125.575 236.822 C 124.883 236.853 124.467 236.471 124.463 235.804 C 124.46 234.977 125.279 234.469 125.981 234.863 M 113.087 236.419 C 113.552 236.655 113.705 237.248 113.415 237.687 C 113.137 238.107 112.439 238.161 112.069 237.791 C 111.394 237.116 112.232 235.986 113.087 236.419" stroke="none" fill="#000000" fill-rule="evenodd"/>
    <text style="font-family: Arial, sans-serif; font-size: 28px; font-weight: 700; white-space: pre;" x="189.232" y="209.784">RECRUIT AI</text>
  </g>
</svg>