<svg id="svg" xmlns="http://www.w3.org/2000/svg" xmlns:xlink="http://www.w3.org/1999/xlink" width="400" height="400" viewBox="0, 0, 400,400"><g id="svgg"><path id="path0" d="M193.359 93.860 C 189.002 94.567,188.209 100.702,192.214 102.725 L 192.871 103.057 192.871 108.553 C 192.871 114.795,192.809 114.355,193.687 114.355 C 194.440 114.355,195.050 114.024,195.126 113.574 C 195.157 113.386,195.163 110.947,195.139 108.154 L 195.096 103.076 195.778 102.748 C 200.138 100.652,199.505 94.522,194.859 93.851 C 194.101 93.741,194.092 93.741,193.359 93.860 M217.198 95.858 C 213.793 96.773,212.597 101.169,215.048 103.760 C 215.529 104.268,216.406 104.866,216.845 104.985 C 217.129 105.061,217.331 110.726,217.126 112.893 L 217.066 113.530 215.540 113.216 C 213.653 112.826,210.379 112.356,208.496 112.203 C 207.717 112.140,207.058 112.067,207.031 112.042 C 207.004 112.016,206.982 109.988,206.982 107.536 C 206.982 102.352,207.001 102.441,205.899 102.441 C 204.778 102.441,204.782 102.421,204.715 108.451 C 204.642 114.949,204.495 114.441,206.494 114.602 C 210.696 114.940,216.879 116.142,220.313 117.288 C 231.604 121.055,239.947 126.431,248.200 135.255 C 250.284 137.482,251.985 139.691,254.216 143.066 C 256.253 146.148,256.166 146.003,257.158 147.998 C 262.261 158.259,264.341 166.994,264.376 178.320 C 264.392 183.396,264.069 185.952,262.597 192.375 C 262.432 193.096,262.319 193.745,262.347 193.816 C 262.388 193.923,265.089 193.945,277.772 193.945 C 286.229 193.945,293.218 193.972,293.302 194.005 C 293.575 194.109,292.984 194.741,286.792 200.956 L 281.900 205.867 269.960 205.839 L 258.019 205.811 257.624 206.553 C 257.406 206.962,257.163 207.478,257.085 207.701 L 256.942 208.105 265.703 208.130 C 270.521 208.143,275.825 208.139,277.490 208.121 C 281.553 208.077,281.624 208.086,282.266 208.725 C 282.544 209.002,283.385 209.798,284.135 210.494 C 284.884 211.191,286.992 213.238,288.818 215.045 C 290.645 216.851,293.171 219.290,294.434 220.465 C 295.696 221.639,297.376 223.239,298.167 224.020 C 300.106 225.934,300.894 226.167,301.313 224.949 C 301.554 224.249,301.448 224.085,299.655 222.368 C 299.012 221.753,297.388 220.171,296.045 218.852 C 294.702 217.534,293.120 215.994,292.529 215.431 C 291.938 214.868,290.049 213.042,288.330 211.373 C 286.611 209.703,284.952 208.103,284.644 207.817 C 284.007 207.227,283.995 207.187,284.314 206.755 C 284.976 205.858,296.819 193.945,297.050 193.945 C 297.344 193.945,298.552 195.034,301.760 198.190 C 303.400 199.803,305.356 201.693,306.106 202.389 C 306.857 203.085,308.397 204.567,309.529 205.682 C 310.793 206.929,311.724 207.768,311.943 207.859 C 312.254 207.989,313.735 208.008,323.931 208.008 L 335.563 208.008 337.672 205.854 C 340.221 203.250,340.011 203.385,340.632 203.942 C 343.255 206.301,347.650 203.791,347.081 200.258 C 346.270 195.226,339.160 196.017,339.160 201.140 C 339.160 201.388,339.052 201.520,338.473 201.978 C 338.095 202.277,337.059 203.228,336.170 204.092 L 334.554 205.663 323.679 205.667 L 312.803 205.672 311.944 204.808 C 310.627 203.484,304.342 197.391,303.516 196.636 C 302.047 195.295,301.270 194.520,301.270 194.395 C 301.270 194.201,302.251 193.313,302.742 193.062 C 303.245 192.805,303.062 192.812,308.363 192.847 L 312.088 192.871 312.156 193.237 C 312.820 196.812,318.412 197.816,320.605 194.753 C 324.072 189.911,317.331 184.464,313.219 188.785 C 312.756 189.272,312.341 189.909,312.249 190.275 C 312.187 190.522,312.168 190.527,311.342 190.528 C 305.164 190.537,301.074 190.791,300.020 191.233 L 299.268 191.548 293.774 191.578 C 290.753 191.594,288.281 191.572,288.281 191.528 C 288.281 191.484,290.062 189.675,292.239 187.507 L 296.197 183.565 296.170 179.290 L 296.143 175.016 295.898 174.751 C 295.764 174.606,294.885 173.796,293.945 172.952 C 293.005 172.108,291.141 170.367,289.803 169.083 L 287.370 166.748 289.747 166.630 L 292.125 166.512 292.766 166.940 C 294.135 167.852,294.892 168.599,295.071 169.211 C 295.613 171.077,296.922 172.082,298.821 172.090 C 302.429 172.106,304.406 167.804,301.886 165.421 C 300.100 163.732,297.950 163.757,296.240 165.487 L 295.557 166.178 294.743 165.466 C 294.296 165.074,293.701 164.641,293.420 164.504 L 292.910 164.254 289.595 164.329 C 287.771 164.371,285.877 164.382,285.385 164.355 L 284.492 164.307 283.139 163.037 C 282.396 162.339,280.917 160.911,279.855 159.863 L 277.922 157.959 277.938 156.372 L 277.953 154.785 283.835 154.785 C 290.702 154.785,291.471 154.818,291.562 155.117 C 292.644 158.672,297.507 159.200,299.411 155.969 C 300.303 154.455,300.066 152.167,298.886 150.895 C 297.020 148.886,293.316 149.390,292.149 151.813 C 292.047 152.024,291.932 152.263,291.894 152.344 C 291.833 152.472,290.940 152.493,284.877 152.515 L 277.930 152.540 277.931 151.734 L 277.932 150.928 276.680 149.707 C 275.991 149.036,274.182 147.300,272.659 145.850 L 269.889 143.213 263.827 143.182 L 257.764 143.151 257.296 142.352 C 256.596 141.157,253.857 137.327,253.485 137.024 C 253.170 136.768,253.333 136.559,255.575 134.351 L 257.831 132.129 266.098 132.137 C 275.753 132.147,275.289 132.119,275.443 132.715 C 276.496 136.817,282.261 137.244,284.185 133.362 C 286.146 129.405,281.903 125.233,277.869 127.153 C 276.967 127.583,275.974 128.563,275.721 129.275 L 275.540 129.785 266.258 129.785 L 256.976 129.785 254.391 132.321 C 252.970 133.716,251.780 134.858,251.748 134.860 C 251.715 134.862,251.168 134.289,250.531 133.587 C 249.894 132.885,248.964 131.936,248.466 131.478 C 247.967 131.020,247.559 130.600,247.559 130.544 C 247.559 130.429,248.174 129.776,250.891 127.004 C 251.946 125.929,253.139 124.697,253.544 124.268 L 254.279 123.486 254.752 123.669 C 260.922 126.056,266.000 118.949,261.379 114.393 C 256.768 109.845,249.341 115.231,252.170 121.070 C 252.662 122.087,252.952 121.663,249.127 125.525 C 247.432 127.238,245.987 128.699,245.915 128.773 C 245.806 128.886,245.635 128.768,244.833 128.026 C 243.973 127.231,242.946 126.394,240.420 124.432 C 239.958 124.073,239.071 123.428,238.448 122.998 C 237.092 122.062,237.250 122.577,237.283 119.220 L 237.310 116.419 237.674 116.302 C 242.841 114.628,241.720 106.988,236.314 107.037 C 231.059 107.085,229.751 114.530,234.678 116.353 L 235.128 116.520 235.086 118.636 C 235.063 119.800,235.036 120.784,235.027 120.823 C 235.017 120.861,234.263 120.472,233.350 119.958 C 228.806 117.398,223.840 115.285,220.215 114.367 L 219.482 114.182 219.461 111.608 C 219.450 110.192,219.466 108.154,219.497 107.080 L 219.553 105.127 220.192 104.838 C 225.598 102.390,222.908 94.322,217.198 95.858 M195.194 96.281 C 197.251 97.341,196.854 100.309,194.592 100.779 C 192.311 101.252,190.788 98.233,192.533 96.697 C 193.236 96.078,194.437 95.890,195.194 96.281 M219.178 98.067 C 220.080 98.333,220.903 99.472,220.915 100.473 C 220.949 103.123,217.419 103.931,216.205 101.552 C 215.220 99.620,217.073 97.448,219.178 98.067 M179.589 102.228 C 175.457 103.592,175.204 109.170,179.199 110.804 C 179.863 111.076,179.862 111.072,179.874 114.024 C 179.879 115.157,179.911 116.355,179.946 116.685 L 180.008 117.285 180.514 117.285 C 181.044 117.285,181.931 117.037,182.054 116.855 C 182.094 116.796,182.128 115.474,182.130 113.916 L 182.134 111.084 182.928 110.697 C 184.358 109.999,185.283 108.726,185.562 107.072 C 186.075 104.029,182.621 101.228,179.589 102.228 M181.883 104.404 C 183.474 105.152,183.792 107.188,182.499 108.356 C 180.688 109.993,177.851 108.157,178.658 105.870 C 179.122 104.555,180.689 103.843,181.883 104.404 M160.645 105.277 C 156.273 106.177,155.756 112.312,159.900 114.117 L 160.522 114.388 160.588 115.568 C 160.624 116.217,160.646 118.594,160.635 120.850 C 160.617 124.784,160.666 126.046,160.855 126.551 C 161.032 127.022,162.155 126.569,162.749 125.788 C 162.932 125.547,162.941 125.316,162.967 119.897 C 162.993 114.531,163.003 114.258,163.171 114.258 C 163.868 114.258,165.445 112.943,165.955 111.937 C 167.735 108.425,164.579 104.467,160.645 105.277 M162.390 107.476 C 165.061 108.269,164.521 112.313,161.746 112.303 C 159.176 112.293,158.406 108.485,160.791 107.582 C 161.551 107.294,161.735 107.282,162.390 107.476 M237.305 109.480 C 238.289 109.925,238.801 110.708,238.800 111.768 C 238.799 114.558,235.217 115.297,234.067 112.744 C 233.138 110.680,235.250 108.551,237.305 109.480 M143.983 113.764 C 138.160 114.685,137.938 123.091,143.710 124.087 C 144.902 124.293,146.519 124.017,147.312 123.472 C 147.418 123.399,147.558 123.340,147.623 123.340 C 147.688 123.340,149.549 125.131,151.759 127.319 C 153.969 129.508,155.860 131.338,155.961 131.385 C 156.177 131.487,157.715 130.182,157.715 129.897 C 157.716 129.716,153.125 125.188,149.908 122.197 L 149.376 121.702 149.635 120.837 C 150.841 116.804,147.914 113.142,143.983 113.764 M102.938 114.120 C 100.368 114.811,99.016 117.604,100.144 119.888 C 101.107 121.837,103.081 122.624,105.240 121.922 L 106.073 121.651 107.699 123.257 C 109.467 125.002,110.461 125.958,112.521 127.893 C 114.283 129.547,120.271 135.317,121.579 136.621 L 122.607 137.646 136.513 137.646 C 149.792 137.646,150.423 137.639,150.526 137.471 C 150.586 137.374,150.909 136.900,151.245 136.416 C 151.581 135.933,151.855 135.496,151.855 135.445 C 151.855 135.386,146.613 135.352,137.742 135.352 L 123.629 135.352 122.236 134.009 C 121.470 133.270,120.428 132.274,119.919 131.795 C 118.546 130.501,115.142 127.206,108.712 120.947 L 107.707 119.969 107.867 119.286 C 108.605 116.136,105.917 113.319,102.938 114.120 M258.749 115.372 C 260.194 116.034,261.043 117.624,260.742 119.105 C 260.072 122.390,255.641 122.894,254.188 119.850 C 252.811 116.964,255.805 114.024,258.749 115.372 M174.061 115.519 C 173.548 115.831,173.421 116.861,173.621 119.092 L 173.682 119.775 174.198 119.754 C 175.597 119.695,175.921 119.274,175.856 117.600 C 175.775 115.522,175.182 114.835,174.061 115.519 M145.958 116.205 C 147.492 116.882,148.172 118.676,147.461 120.167 C 146.144 122.926,142.046 122.177,141.730 119.120 C 141.507 116.961,143.913 115.303,145.958 116.205 M104.547 116.411 C 105.423 116.733,105.901 117.759,105.618 118.711 C 105.042 120.651,101.944 120.211,101.955 118.192 C 101.963 116.879,103.307 115.956,104.547 116.411 M197.021 118.557 C 182.902 119.432,168.836 125.429,159.583 134.518 C 155.849 138.186,153.520 140.993,150.951 144.922 C 149.049 147.832,146.962 151.876,145.635 155.225 C 138.922 172.160,140.081 190.823,148.807 206.299 C 149.959 208.342,150.627 209.395,152.829 212.631 C 153.407 213.481,155.274 215.822,155.762 216.309 C 155.789 216.335,156.227 216.819,156.737 217.383 C 161.443 222.593,168.115 227.495,175.342 231.052 C 184.120 235.373,194.689 237.316,205.415 236.582 C 207.625 236.431,208.607 236.309,211.390 235.842 C 219.308 234.513,227.187 231.327,234.240 226.604 C 235.941 225.465,239.160 223.063,239.160 222.933 C 239.160 222.452,240.735 223.820,245.195 228.174 C 247.220 230.152,246.957 230.024,247.583 229.330 C 247.865 229.017,248.717 228.123,249.476 227.344 C 251.750 225.011,252.832 223.690,252.832 223.245 C 252.832 222.960,252.443 222.522,250.926 221.102 C 248.865 219.173,246.281 216.555,246.228 216.342 C 246.159 216.069,246.253 215.915,247.081 214.940 C 250.154 211.324,253.557 205.679,255.603 200.805 C 263.471 182.063,261.508 160.811,250.406 144.531 C 242.478 132.906,231.198 124.677,217.922 120.834 C 214.691 119.899,211.035 119.174,207.129 118.695 C 205.671 118.516,199.122 118.427,197.021 118.557 M126.261 120.839 C 122.803 121.833,121.707 126.149,124.258 128.721 C 127.080 131.564,131.799 129.718,132.195 125.615 C 132.493 122.532,129.303 119.965,126.261 120.839 M302.539 121.026 C 297.920 122.077,297.848 128.718,302.444 129.777 C 305.975 130.591,308.962 126.697,307.337 123.401 C 306.470 121.643,304.378 120.607,302.539 121.026 M128.701 123.177 C 129.779 123.709,130.306 125.362,129.745 126.448 C 128.532 128.793,125.146 127.979,125.146 125.342 C 125.146 123.449,126.985 122.329,128.701 123.177 M304.393 123.389 C 305.931 124.193,305.906 126.649,304.353 127.354 C 302.564 128.166,300.826 126.553,301.371 124.588 C 301.687 123.450,303.292 122.814,304.393 123.389 M206.392 126.649 C 222.971 128.651,236.270 137.047,244.697 150.830 C 256.577 170.260,253.707 196.546,237.944 212.681 C 229.180 221.652,218.104 227.082,205.811 228.435 C 204.270 228.605,197.718 228.605,196.289 228.436 C 183.233 226.886,172.510 221.783,164.005 213.070 C 146.369 195.005,144.640 167.227,159.871 146.660 C 160.489 145.825,160.637 145.641,161.960 144.051 C 162.984 142.820,165.920 139.889,167.090 138.930 C 167.600 138.511,168.215 138.004,168.457 137.802 C 175.513 131.913,185.526 127.743,195.117 126.699 C 195.896 126.614,196.863 126.509,197.266 126.465 C 198.755 126.303,204.485 126.418,206.392 126.649 M280.929 129.121 C 283.374 130.271,282.622 133.789,279.932 133.789 C 277.208 133.789,276.513 130.145,279.028 129.052 C 279.520 128.838,280.393 128.870,280.929 129.121 M197.119 130.620 C 180.027 132.062,165.708 141.739,158.402 156.787 C 157.098 159.473,156.426 161.085,155.816 162.988 C 152.768 172.500,152.765 183.204,155.807 192.334 C 157.859 198.490,160.426 202.831,165.190 208.203 C 166.899 210.130,168.281 211.325,166.941 209.717 C 165.836 208.391,164.521 206.402,163.067 203.857 C 157.193 193.579,155.352 182.124,157.762 170.850 C 159.162 164.304,161.544 158.881,165.642 152.914 C 167.349 150.428,172.233 145.513,174.463 144.036 C 174.731 143.859,175.199 143.525,175.501 143.295 C 178.282 141.183,182.755 138.913,187.015 137.454 C 199.991 133.007,214.943 135.259,226.074 143.338 C 234.202 149.237,239.655 156.901,242.593 166.553 C 246.663 179.923,244.009 195.435,235.829 206.083 C 230.435 213.103,222.375 218.824,213.916 221.636 C 209.976 222.946,208.198 223.325,202.979 223.964 L 201.904 224.096 203.613 224.108 C 226.703 224.265,245.434 206.493,247.908 182.080 C 249.515 166.231,242.841 150.532,230.215 140.460 C 221.352 133.390,208.737 129.640,197.119 130.620 M102.783 132.056 C 102.439 132.351,102.357 132.948,102.592 133.443 C 102.845 133.975,104.771 135.879,110.449 141.211 C 111.335 142.043,113.116 143.734,114.405 144.970 C 115.695 146.206,116.958 147.404,117.213 147.634 C 117.814 148.175,117.991 147.900,115.405 150.455 C 108.519 157.261,105.882 159.959,104.977 161.130 C 104.051 162.327,103.369 162.591,101.934 162.309 C 100.772 162.080,100.618 161.969,98.242 159.636 C 97.249 158.660,95.624 157.092,94.631 156.152 C 93.639 155.212,92.254 153.890,91.554 153.214 L 90.281 151.986 88.045 151.921 C 86.815 151.885,81.632 151.855,76.527 151.855 L 67.245 151.855 64.748 154.346 C 62.170 156.917,62.111 156.962,61.774 156.648 C 60.058 155.048,57.000 155.802,55.927 158.088 C 54.030 162.133,59.197 165.709,62.349 162.532 C 63.244 161.630,63.700 160.371,63.500 159.358 L 63.400 158.850 65.722 156.529 C 66.999 155.253,68.148 154.183,68.275 154.151 C 68.402 154.119,73.169 154.128,78.868 154.171 L 89.229 154.248 90.977 155.906 C 93.704 158.494,96.935 161.597,98.803 163.423 C 99.515 164.118,100.124 164.773,100.158 164.879 C 100.219 165.073,98.106 167.216,97.266 167.812 C 96.657 168.244,90.396 168.311,90.272 167.887 C 89.265 164.451,84.013 163.725,81.942 166.736 C 79.049 170.940,83.467 176.072,87.935 173.698 C 89.011 173.126,90.332 171.501,90.332 170.749 C 90.332 170.433,90.563 170.411,93.884 170.407 C 97.975 170.403,98.051 170.390,98.724 169.611 C 99.017 169.272,100.033 168.203,100.981 167.236 C 101.929 166.270,102.906 165.211,103.153 164.884 C 103.655 164.217,104.554 163.360,105.017 163.107 C 105.339 162.930,118.066 162.837,118.066 163.012 C 118.066 163.051,115.529 165.619,112.427 168.717 L 106.787 174.349 106.672 179.041 C 106.608 181.622,106.587 183.782,106.623 183.841 C 106.660 183.901,107.129 184.339,107.666 184.816 C 109.086 186.075,109.759 186.719,114.355 191.213 C 120.642 197.360,121.141 197.840,121.577 198.175 L 121.982 198.486 116.338 198.515 C 113.233 198.530,110.507 198.517,110.278 198.484 L 109.863 198.426 109.863 197.959 C 109.863 194.138,105.526 191.914,102.970 194.423 C 100.717 196.634,101.694 200.240,104.802 201.184 C 106.010 201.551,107.973 201.039,108.397 200.247 C 108.558 199.947,108.719 199.937,109.093 200.203 C 109.989 200.841,109.837 200.829,117.072 200.838 L 123.645 200.846 124.769 201.961 C 126.262 203.443,126.159 203.150,126.098 205.762 L 126.047 207.959 120.519 207.938 C 113.589 207.912,112.793 207.875,112.793 207.578 C 112.793 206.058,110.372 204.493,108.464 204.780 C 104.731 205.341,103.552 209.855,106.509 212.264 C 108.571 213.944,112.300 212.954,112.789 210.596 L 112.849 210.303 115.287 210.232 C 116.628 210.193,119.610 210.188,121.914 210.221 L 126.104 210.280 128.897 213.059 C 130.433 214.587,131.797 215.910,131.929 216.000 C 132.146 216.147,132.887 216.167,139.641 216.211 L 147.114 216.260 147.901 217.400 C 148.334 218.028,148.987 218.918,149.352 219.379 C 149.717 219.839,150.001 220.253,149.983 220.298 C 149.966 220.344,148.940 221.320,147.705 222.468 C 146.470 223.617,145.126 224.896,144.719 225.311 L 143.979 226.067 142.033 226.133 C 140.963 226.169,137.248 226.165,133.777 226.125 L 127.465 226.051 127.357 225.689 C 126.216 221.880,120.437 221.319,118.750 224.853 C 116.229 230.136,123.124 234.563,126.629 229.911 C 127.025 229.386,127.244 229.000,127.264 228.789 C 127.309 228.319,127.225 228.323,135.840 228.389 C 140.110 228.421,143.860 228.416,144.173 228.376 L 144.742 228.304 146.468 226.683 C 147.417 225.792,148.545 224.725,148.975 224.312 C 150.197 223.139,151.496 221.973,151.582 221.973 C 151.624 221.973,152.583 222.902,153.711 224.038 L 155.763 226.103 155.528 226.406 C 155.056 227.012,148.906 233.141,146.856 235.047 L 146.301 235.564 145.440 235.347 C 142.539 234.614,139.752 235.699,138.508 238.045 C 135.756 243.236,140.893 248.667,146.191 246.168 C 149.179 244.758,150.281 241.318,148.733 238.229 C 148.463 237.690,148.242 237.192,148.242 237.122 C 148.242 236.952,157.434 227.737,157.606 227.736 C 157.681 227.735,158.054 228.011,158.436 228.349 C 158.818 228.688,159.450 229.224,159.839 229.541 L 160.548 230.118 160.523 240.519 L 160.498 250.920 160.194 250.982 C 158.263 251.377,156.592 253.930,156.935 255.963 C 157.481 259.203,160.551 260.726,163.574 259.258 C 166.965 257.611,166.628 252.262,163.062 251.134 C 162.900 251.083,162.891 250.536,162.891 241.446 C 162.891 231.915,162.893 231.814,163.081 231.946 C 164.898 233.225,167.955 235.091,170.068 236.211 L 171.533 236.988 171.558 242.437 C 171.586 248.440,171.547 248.068,172.187 248.399 C 172.781 248.706,173.533 248.428,173.773 247.813 C 173.860 247.592,173.897 246.233,173.909 242.830 C 173.918 240.257,173.946 238.131,173.971 238.106 C 173.996 238.080,174.257 238.174,174.551 238.313 C 176.668 239.315,183.764 241.699,184.630 241.699 C 184.779 241.699,184.832 251.894,184.702 255.329 L 184.639 256.996 182.715 258.985 L 180.790 260.973 180.459 260.833 C 179.755 260.536,177.786 260.641,177.025 261.017 C 173.175 262.912,174.238 268.743,178.467 268.928 C 181.178 269.047,183.047 267.322,183.051 264.697 C 183.053 263.774,183.022 263.564,182.835 263.205 C 182.480 262.523,182.460 262.553,184.798 260.171 L 186.980 257.948 187.044 256.009 C 187.080 254.943,187.109 251.418,187.109 248.176 L 187.109 242.281 187.329 242.329 C 188.363 242.550,191.069 243.004,191.992 243.110 C 192.288 243.144,192.683 243.194,192.871 243.221 L 193.213 243.271 193.196 251.201 C 193.185 255.955,193.216 259.276,193.271 259.492 C 193.459 260.221,194.362 260.542,195.068 260.133 L 195.459 259.906 195.508 251.738 C 195.535 247.246,195.579 243.553,195.605 243.531 C 195.632 243.509,196.226 243.531,196.924 243.579 C 197.622 243.627,200.028 243.648,202.271 243.625 L 206.348 243.585 206.348 250.406 C 206.348 256.836,206.338 257.227,206.177 257.229 C 205.502 257.237,203.903 258.616,203.418 259.607 C 201.505 263.519,205.588 267.672,209.520 265.814 C 211.750 264.760,212.811 261.979,211.798 259.845 C 211.203 258.592,209.670 257.227,208.859 257.227 C 208.670 257.227,208.668 257.134,208.709 250.269 L 208.751 243.311 209.234 243.240 C 209.499 243.202,210.449 243.059,211.344 242.923 C 212.239 242.787,213.035 242.676,213.112 242.676 C 213.218 242.676,213.266 242.876,213.311 243.505 C 213.390 244.623,213.508 244.831,214.920 246.321 C 216.610 248.105,216.514 247.866,215.980 248.948 C 214.987 250.961,215.219 252.831,216.654 254.381 C 220.520 258.557,227.009 253.320,223.739 248.663 C 222.612 247.059,221.046 246.461,218.883 246.809 L 218.381 246.890 217.596 245.920 C 217.164 245.387,216.611 244.775,216.367 244.560 C 215.841 244.097,215.771 243.932,215.685 242.959 L 215.620 242.218 216.379 241.999 C 221.359 240.566,225.243 239.230,227.881 238.041 C 228.042 237.969,228.446 237.796,228.779 237.657 C 230.394 236.983,233.936 235.073,236.377 233.560 L 237.256 233.016 237.311 238.310 C 237.395 246.349,237.325 250.000,237.088 250.000 C 236.373 250.000,234.867 251.301,234.351 252.363 C 232.325 256.536,237.022 260.552,241.040 258.081 C 244.030 256.242,243.502 251.086,240.225 250.120 L 239.652 249.951 239.626 240.967 C 239.611 236.025,239.613 231.949,239.630 231.909 C 239.687 231.771,240.063 232.051,241.143 233.030 C 242.967 234.686,243.482 234.728,243.995 233.260 L 244.216 232.626 244.007 232.353 C 243.891 232.203,243.358 231.664,242.821 231.155 C 242.285 230.646,241.310 229.705,240.655 229.063 L 239.465 227.896 239.044 228.172 C 238.813 228.325,238.162 228.781,237.598 229.187 C 230.940 233.975,221.637 237.966,213.473 239.537 C 202.513 241.646,192.008 241.055,181.479 237.738 C 163.733 232.147,148.752 218.308,141.897 201.172 C 137.000 188.932,135.971 174.428,139.116 161.994 C 139.449 160.679,139.488 160.770,138.550 160.696 C 138.107 160.661,131.182 160.602,123.162 160.565 L 108.580 160.498 113.942 155.127 C 116.892 152.173,119.396 149.634,119.507 149.485 L 119.710 149.214 130.485 149.218 C 136.411 149.220,141.772 149.192,142.397 149.157 L 143.535 149.093 143.984 148.092 C 144.231 147.542,144.434 147.043,144.434 146.983 C 144.434 146.905,141.449 146.874,133.569 146.872 C 127.594 146.871,122.003 146.843,121.145 146.810 L 119.584 146.752 118.313 145.568 C 117.613 144.918,116.316 143.682,115.430 142.822 C 114.543 141.962,113.314 140.776,112.697 140.185 C 112.080 139.595,111.025 138.581,110.353 137.933 C 109.681 137.285,108.173 135.861,107.002 134.769 C 105.832 133.676,104.833 132.706,104.783 132.613 C 104.442 131.975,103.259 131.646,102.783 132.056 M80.582 132.342 C 79.169 132.502,77.834 133.505,77.123 134.941 L 76.709 135.776 76.709 136.961 C 76.709 141.150,81.626 143.027,84.514 139.939 C 87.377 136.879,84.781 131.864,80.582 132.342 M82.059 134.704 C 83.494 135.316,83.920 137.435,82.828 138.534 C 81.412 139.958,78.919 138.996,78.909 137.023 C 78.900 135.261,80.537 134.056,82.059 134.704 M326.568 139.267 C 325.132 139.548,323.389 140.984,323.109 142.114 L 323.043 142.383 318.023 142.383 L 313.004 142.383 306.553 148.804 C 299.101 156.220,299.752 155.376,299.851 157.501 L 299.920 158.997 298.947 159.958 C 297.647 161.244,297.239 162.167,297.552 163.114 C 297.873 164.088,298.201 163.926,300.426 161.696 L 302.276 159.842 302.220 158.315 C 302.142 156.215,301.591 156.956,308.075 150.454 L 313.757 144.756 314.511 144.693 C 315.544 144.605,322.681 144.615,322.807 144.704 C 322.864 144.743,322.968 144.973,323.038 145.215 C 324.367 149.765,330.895 149.437,331.990 144.765 C 332.707 141.705,329.698 138.653,326.568 139.267 M328.247 141.601 C 330.757 142.540,330.128 146.191,327.456 146.191 C 326.783 146.191,326.316 146.019,325.828 145.591 C 323.874 143.875,325.807 140.688,328.247 141.601 M269.761 146.359 C 270.258 146.831,271.668 148.139,272.894 149.266 C 275.055 151.252,275.483 151.698,275.357 151.824 C 275.267 151.914,264.165 151.992,263.078 151.910 L 262.142 151.840 261.723 150.798 C 261.252 149.630,260.170 147.413,259.560 146.369 C 259.251 145.841,259.187 145.661,259.285 145.601 C 259.355 145.557,261.538 145.517,264.136 145.511 L 268.858 145.501 269.761 146.359 M183.921 151.082 C 182.876 151.214,181.897 151.959,181.151 153.190 L 180.811 153.752 180.784 158.708 L 180.757 163.665 174.922 163.693 L 169.087 163.721 168.414 164.052 C 167.536 164.485,166.450 165.547,166.056 166.357 L 165.772 166.943 165.694 171.289 C 165.576 177.898,165.613 178.330,166.379 179.267 C 167.057 180.096,167.307 180.198,172.314 181.676 C 173.657 182.072,176.118 182.800,177.783 183.294 C 179.448 183.787,181.711 184.455,182.813 184.778 C 183.914 185.101,185.979 185.711,187.402 186.135 C 190.815 187.151,192.716 187.685,192.761 187.641 C 192.782 187.622,192.817 187.417,192.839 187.187 C 192.959 185.966,193.594 184.927,194.745 184.069 C 195.645 183.397,195.715 183.389,200.645 183.420 L 205.029 183.447 205.772 183.802 C 207.088 184.430,208.149 185.736,208.414 187.053 C 208.474 187.353,208.572 187.598,208.632 187.598 C 208.914 187.597,210.961 187.048,212.500 186.560 C 213.440 186.262,214.802 185.842,215.527 185.628 C 217.847 184.942,219.170 184.549,219.922 184.324 C 220.916 184.026,228.416 181.852,230.713 181.196 C 233.714 180.339,234.557 179.837,235.178 178.540 C 235.433 178.007,235.577 169.411,235.363 167.493 C 235.203 166.053,234.200 164.666,232.836 163.996 L 232.275 163.721 226.709 163.660 C 223.647 163.627,220.979 163.594,220.779 163.587 L 220.415 163.574 220.388 158.604 L 220.361 153.634 219.880 152.930 C 219.396 152.221,218.780 151.682,217.969 151.256 L 217.529 151.025 201.025 151.016 C 191.948 151.010,184.251 151.040,183.921 151.082 M296.585 152.075 C 297.730 152.654,298.014 154.381,297.115 155.306 C 296.185 156.265,294.535 156.057,293.991 154.913 C 293.136 153.113,294.875 151.211,296.585 152.075 M275.592 156.426 C 275.572 159.116,275.245 158.543,278.787 162.008 L 281.586 164.746 280.780 164.746 L 279.974 164.746 278.830 163.656 C 277.459 162.350,276.311 161.355,275.977 161.185 C 275.590 160.989,274.383 160.940,269.605 160.928 L 265.138 160.916 265.045 160.560 C 264.994 160.365,264.860 159.837,264.746 159.386 C 264.547 158.597,263.963 156.791,263.371 155.138 C 263.215 154.702,263.087 154.312,263.086 154.272 C 263.086 154.231,265.903 154.209,269.347 154.223 L 275.607 154.248 275.592 156.426 M215.946 155.371 C 215.970 155.398,216.014 157.277,216.044 159.546 L 216.098 163.672 200.529 163.672 L 184.961 163.672 184.961 159.467 L 184.961 155.262 200.431 155.292 C 208.940 155.309,215.921 155.344,215.946 155.371 M60.397 158.338 C 62.318 159.367,60.732 162.156,58.754 161.227 C 57.457 160.617,57.603 158.447,58.962 158.147 C 59.108 158.115,59.272 158.075,59.326 158.060 C 59.517 158.004,60.016 158.133,60.397 158.338 M135.787 163.561 C 135.060 166.676,134.375 174.111,134.375 178.885 L 134.375 180.674 132.424 180.658 L 130.473 180.642 130.228 180.107 C 128.963 177.344,124.961 176.722,122.714 178.940 C 119.959 181.658,121.599 186.139,125.526 186.621 C 127.651 186.882,130.134 185.242,130.454 183.365 L 130.523 182.959 132.532 182.933 L 134.542 182.906 134.607 183.616 C 134.742 185.103,135.266 188.596,135.663 190.654 C 135.826 191.503,135.944 192.206,135.924 192.217 C 135.905 192.228,131.976 192.214,127.195 192.188 L 118.501 192.139 118.115 191.699 C 117.584 191.093,116.967 190.485,114.648 188.281 C 113.547 187.235,111.801 185.544,110.768 184.522 L 108.889 182.666 108.952 179.075 L 109.016 175.483 109.560 174.875 C 109.860 174.541,111.022 173.345,112.143 172.217 C 115.493 168.847,120.673 163.545,120.898 163.257 L 121.108 162.988 128.514 162.988 L 135.920 162.988 135.787 163.561 M273.203 163.306 L 274.874 163.330 275.449 163.816 C 275.766 164.083,276.597 164.883,277.295 165.593 C 278.829 167.153,278.744 167.116,280.450 166.993 C 281.185 166.940,282.331 166.896,282.996 166.895 L 284.205 166.895 285.438 168.091 C 287.368 169.963,291.447 173.880,292.578 174.948 C 294.077 176.363,293.941 175.910,293.948 179.533 L 293.954 182.636 289.966 186.606 C 287.772 188.790,285.782 190.807,285.542 191.089 L 285.107 191.602 275.366 191.626 C 270.009 191.639,265.625 191.645,265.625 191.638 C 265.625 191.631,265.754 190.994,265.913 190.222 C 266.748 186.144,267.186 181.880,267.187 177.806 L 267.188 176.265 269.105 176.292 L 271.023 176.318 271.136 176.758 C 272.411 181.735,280.036 180.990,280.255 175.868 C 280.462 171.020,273.699 169.207,271.646 173.560 L 271.381 174.121 270.481 174.121 C 269.985 174.120,269.025 174.092,268.346 174.057 L 267.112 173.994 267.047 172.764 C 266.947 170.882,266.030 164.490,265.726 163.558 C 265.679 163.415,265.656 163.283,265.674 163.265 C 265.705 163.234,269.683 163.255,273.203 163.306 M330.005 166.356 C 328.684 166.728,327.626 167.672,327.307 168.763 C 327.236 169.006,324.214 169.072,315.092 169.030 L 307.309 168.994 307.029 169.307 C 306.485 169.915,306.589 170.855,307.235 171.164 C 307.431 171.257,309.687 171.286,317.198 171.291 C 322.538 171.295,326.951 171.329,327.004 171.367 C 327.058 171.405,327.211 171.675,327.345 171.968 C 328.695 174.924,333.156 174.904,334.624 171.934 C 336.152 168.842,333.320 165.422,330.005 166.356 M299.637 166.641 C 301.367 167.394,300.828 170.040,298.975 169.895 C 297.808 169.803,297.314 169.237,297.380 168.068 C 297.453 166.779,298.473 166.134,299.637 166.641 M87.006 167.340 C 89.519 168.708,88.100 172.607,85.315 171.984 C 83.758 171.636,82.962 170.273,83.389 168.688 C 83.769 167.274,85.619 166.585,87.006 167.340 M331.766 168.591 C 332.666 168.977,333.006 170.139,332.495 171.092 C 331.875 172.251,330.106 172.252,329.510 171.094 C 328.716 169.549,330.188 167.916,331.766 168.591 M276.710 173.472 C 278.642 174.372,278.442 177.198,276.403 177.791 C 274.709 178.284,273.242 177.194,273.242 175.444 C 273.242 173.912,275.228 172.782,276.710 173.472 M303.635 175.790 C 302.375 176.285,301.420 177.649,301.420 178.955 C 301.420 181.860,305.109 183.281,307.205 181.183 C 309.735 178.650,306.973 174.477,303.635 175.790 M97.730 178.565 C 93.166 179.715,93.133 185.899,97.686 186.918 C 100.663 187.585,103.305 185.142,102.830 182.163 C 102.451 179.793,99.926 178.012,97.730 178.565 M126.605 179.794 C 128.106 180.172,128.812 182.329,127.825 183.523 C 126.785 184.782,124.686 184.594,123.981 183.179 C 123.066 181.344,124.650 179.301,126.605 179.794 M99.651 180.996 C 101.318 181.973,100.921 184.406,99.037 184.763 C 97.593 185.037,96.427 183.887,96.627 182.385 C 96.816 180.957,98.367 180.244,99.651 180.996 M234.033 183.968 C 233.715 184.029,226.957 185.976,225.000 186.571 C 220.924 187.811,217.921 188.710,214.404 189.743 C 209.019 191.325,208.499 191.500,208.450 191.742 C 208.428 191.853,208.387 192.800,208.359 193.848 C 208.268 197.246,207.410 198.663,205.176 199.107 C 204.262 199.289,196.453 199.280,195.834 199.097 C 194.725 198.769,193.721 197.845,193.140 196.617 L 192.822 195.947 192.812 193.851 L 192.802 191.754 192.519 191.632 C 192.129 191.463,188.091 190.154,186.133 189.562 C 184.412 189.041,182.677 188.535,176.563 186.767 C 174.441 186.154,171.936 185.425,170.996 185.149 C 167.408 184.093,167.038 183.987,166.916 183.986 C 166.816 183.985,166.797 185.332,166.819 190.845 L 166.846 197.705 167.108 198.202 C 167.462 198.872,168.532 200.440,169.370 201.514 C 170.894 203.468,174.092 207.176,175.076 208.130 L 175.856 208.887 199.916 208.882 C 213.148 208.879,224.278 208.843,224.649 208.802 L 225.323 208.727 226.163 207.847 C 227.115 206.848,228.437 205.349,229.514 204.048 C 229.916 203.562,230.579 202.782,230.986 202.314 C 231.922 201.241,233.227 199.485,233.790 198.543 L 234.222 197.818 234.260 191.121 C 234.302 183.671,234.310 183.916,234.033 183.968 M196.729 186.798 C 196.115 186.903,196.104 186.984,196.109 191.357 C 196.114 195.454,196.126 195.595,196.489 195.769 C 196.774 195.906,204.393 195.985,204.785 195.855 C 205.175 195.726,205.173 195.746,205.174 191.592 C 205.176 187.390,205.145 187.070,204.729 186.911 C 204.451 186.806,197.276 186.704,196.729 186.798 M71.615 187.406 C 67.792 188.163,67.232 193.707,70.834 195.149 C 72.851 195.957,75.977 194.553,75.977 192.839 C 75.977 192.355,75.594 192.372,86.855 192.352 L 97.456 192.334 97.671 192.118 C 98.038 191.752,98.048 190.849,97.691 190.467 L 97.412 190.169 93.311 190.101 C 91.055 190.064,86.268 190.037,82.674 190.040 L 76.138 190.047 75.845 189.501 C 75.016 187.956,73.252 187.083,71.615 187.406 M317.676 189.615 C 318.865 190.103,319.500 191.578,319.045 192.795 C 318.091 195.344,314.251 194.684,314.260 191.973 C 314.266 190.127,316.003 188.929,317.676 189.615 M73.281 190.068 C 74.788 190.906,73.940 193.334,72.208 193.139 C 71.023 193.005,70.398 192.108,70.710 190.986 C 71.010 189.906,72.216 189.475,73.281 190.068 M137.252 197.021 C 137.697 198.364,138.374 200.188,138.757 201.074 C 139.140 201.960,139.453 202.740,139.453 202.808 C 139.453 202.943,131.948 202.987,129.576 202.866 L 128.342 202.803 128.291 202.422 C 128.244 202.075,127.934 201.735,124.668 198.469 C 122.704 196.504,121.053 194.844,120.999 194.779 C 120.923 194.688,121.369 194.656,122.973 194.639 C 124.113 194.627,125.064 194.597,125.088 194.573 C 125.112 194.549,127.677 194.541,130.788 194.555 L 136.444 194.580 137.252 197.021 M106.547 195.923 C 107.391 196.349,107.703 197.672,107.110 198.316 C 106.317 199.178,104.675 199.076,104.195 198.136 C 103.432 196.641,105.016 195.151,106.547 195.923 M343.828 199.357 C 345.385 200.170,345.069 202.255,343.353 202.491 C 341.820 202.702,340.916 200.858,341.971 199.673 C 342.354 199.243,343.302 199.082,343.828 199.357 M97.444 209.564 L 90.603 216.406 85.740 216.406 L 80.877 216.406 80.487 215.698 C 79.339 213.612,76.566 212.852,74.401 214.030 C 70.743 216.021,71.760 221.602,75.918 222.355 C 78.024 222.737,80.504 221.101,80.844 219.106 L 80.914 218.701 86.233 218.649 C 89.159 218.620,91.573 218.587,91.597 218.575 C 91.643 218.554,96.916 213.298,102.013 208.193 C 105.546 204.655,105.400 204.837,105.331 204.017 C 105.262 203.204,105.027 202.793,104.604 202.752 C 104.300 202.723,103.965 203.041,97.444 209.564 M137.232 205.176 L 140.431 205.176 141.132 206.616 C 142.251 208.918,144.266 212.418,145.033 213.393 C 145.187 213.589,145.313 213.775,145.313 213.808 C 145.313 213.841,142.520 213.867,139.107 213.867 L 132.901 213.867 130.614 211.548 L 128.327 209.229 128.324 207.138 L 128.320 205.047 131.177 205.111 C 132.748 205.146,135.473 205.176,137.232 205.176 M109.735 207.135 C 110.725 207.509,111.149 208.817,110.635 209.911 C 109.852 211.576,107.232 210.854,107.151 208.953 C 107.090 207.511,108.361 206.616,109.735 207.135 M279.429 212.834 C 274.894 213.934,274.648 220.472,279.085 221.967 C 280.964 222.600,283.350 221.775,284.464 220.108 C 286.838 216.552,283.569 211.830,279.429 212.834 M252.921 214.198 C 252.562 214.611,251.660 215.951,251.660 216.071 C 251.660 216.212,254.685 216.309,259.066 216.309 L 262.338 216.309 264.250 218.188 C 265.302 219.222,266.602 220.486,267.139 220.996 L 268.115 221.924 268.164 225.133 L 268.213 228.343 268.595 228.673 C 269.020 229.040,269.369 229.093,269.823 228.858 C 270.416 228.551,270.410 228.593,270.410 224.943 C 270.410 220.317,270.677 221.069,268.224 218.776 C 267.090 217.716,265.520 216.221,264.736 215.455 L 263.310 214.063 261.309 214.063 C 260.209 214.063,257.924 214.034,256.230 213.998 L 253.151 213.934 252.921 214.198 M281.606 215.216 C 284.230 216.555,282.834 220.427,279.943 219.827 C 277.496 219.319,277.389 215.784,279.799 215.048 C 280.272 214.903,281.153 214.986,281.606 215.216 M77.548 215.950 C 79.600 217.033,78.906 220.009,76.599 220.017 C 75.246 220.022,74.414 219.260,74.414 218.018 C 74.414 216.279,76.084 215.177,77.548 215.950 M319.189 218.394 C 316.537 219.281,315.341 221.929,316.493 224.365 C 318.418 228.437,324.611 226.867,324.396 222.361 C 324.268 219.679,321.547 217.606,319.189 218.394 M320.973 220.659 C 322.710 221.385,322.513 224.059,320.701 224.366 C 319.448 224.577,318.311 223.696,318.338 222.534 C 318.370 221.117,319.739 220.143,320.973 220.659 M256.817 224.545 C 256.038 224.765,255.687 225.076,251.511 229.260 C 246.434 234.345,246.526 234.219,246.874 235.604 C 247.366 237.566,247.819 238.118,252.929 242.976 C 254.083 244.073,256.252 246.157,257.749 247.607 C 259.247 249.058,261.115 250.856,261.901 251.604 C 264.734 254.299,265.507 255.043,267.285 256.781 C 268.279 257.752,269.686 259.117,270.413 259.815 C 271.140 260.513,272.585 261.911,273.625 262.922 C 278.033 267.208,279.670 267.260,283.386 263.231 C 283.782 262.802,285.101 261.440,286.318 260.205 C 289.237 257.240,289.498 256.734,289.249 254.513 C 289.093 253.130,289.004 253.022,284.084 248.285 C 283.306 247.537,281.833 246.110,280.812 245.115 C 279.791 244.120,278.296 242.670,277.490 241.892 C 276.685 241.115,274.817 239.288,273.340 237.833 C 271.863 236.378,270.061 234.643,269.336 233.978 C 267.950 232.706,265.022 229.858,262.064 226.903 C 259.652 224.494,258.626 224.033,256.817 224.545 M123.878 224.893 C 125.919 225.795,125.724 228.825,123.584 229.447 C 121.923 229.931,120.453 228.825,120.464 227.100 C 120.476 225.201,122.140 224.125,123.878 224.893 M100.221 231.590 C 96.819 232.544,95.709 236.606,98.205 238.967 C 101.097 241.702,105.735 239.551,105.545 235.563 C 105.416 232.870,102.751 230.881,100.221 231.590 M102.319 233.996 C 103.863 234.744,103.635 237.328,101.984 237.786 C 100.370 238.234,99.131 237.254,99.235 235.611 C 99.331 234.110,100.879 233.299,102.319 233.996 M145.122 237.756 C 147.311 238.788,147.832 241.362,146.243 243.301 C 144.761 245.109,141.569 244.702,140.427 242.558 C 138.848 239.596,142.060 236.312,145.122 237.756 M220.933 249.060 C 222.880 249.874,222.865 252.773,220.910 253.463 C 218.053 254.471,216.382 250.378,219.141 249.129 C 219.656 248.896,220.466 248.865,220.933 249.060 M239.428 252.103 C 240.714 252.641,241.207 254.435,240.398 255.635 C 239.332 257.216,236.712 256.706,236.238 254.824 C 235.796 253.069,237.751 251.402,239.428 252.103 M162.202 253.190 C 164.502 254.123,163.937 257.482,161.469 257.546 C 159.070 257.608,158.254 254.370,160.386 253.251 C 161.002 252.928,161.514 252.911,162.202 253.190 M208.636 259.556 C 210.786 260.764,210.149 263.840,207.726 263.950 C 206.175 264.020,205.240 263.164,205.233 261.667 C 205.225 259.813,207.063 258.673,208.636 259.556 M179.714 263.047 C 180.757 263.576,181.101 264.906,180.449 265.891 C 179.825 266.834,178.260 266.955,177.430 266.125 C 175.915 264.610,177.795 262.076,179.714 263.047 M159.570 281.903 C 153.294 282.552,148.820 288.123,149.503 294.439 C 150.348 302.253,157.647 306.845,164.996 304.186 C 166.702 303.569,169.409 301.532,170.006 300.416 C 170.139 300.167,170.206 300.238,168.994 299.333 C 168.564 299.012,167.942 298.503,167.612 298.203 C 166.882 297.540,166.937 297.539,166.443 298.231 C 165.328 299.797,162.899 300.977,160.791 300.977 C 155.759 300.977,152.363 295.755,154.122 290.723 C 155.909 285.607,162.022 284.247,165.951 288.091 C 166.683 288.808,166.741 288.843,166.865 288.644 C 166.946 288.515,168.825 287.093,169.658 286.531 L 170.126 286.215 169.763 285.808 C 167.326 283.070,163.278 281.519,159.570 281.903 M107.422 282.391 C 107.422 282.435,107.416 287.415,107.408 293.457 L 107.393 304.443 109.507 304.470 L 111.621 304.496 111.621 300.333 C 111.621 296.577,111.636 296.176,111.776 296.230 C 111.861 296.262,112.827 296.289,113.922 296.289 L 115.915 296.289 116.151 296.753 C 116.711 297.852,120.534 303.374,121.323 304.224 L 121.573 304.492 123.975 304.492 C 126.260 304.492,126.372 304.484,126.251 304.319 C 126.180 304.223,125.482 303.289,124.699 302.244 C 123.915 301.198,122.898 299.814,122.438 299.170 C 121.979 298.525,121.268 297.561,120.860 297.027 C 120.451 296.492,120.150 296.027,120.190 295.992 C 120.231 295.957,120.666 295.791,121.157 295.622 C 124.767 294.385,126.407 290.850,125.138 287.042 C 124.393 284.806,122.741 283.336,120.152 282.606 C 119.351 282.380,107.421 282.179,107.422 282.391 M174.059 292.891 C 174.096 298.708,174.152 303.719,174.184 304.028 L 174.243 304.590 176.268 304.590 L 178.293 304.590 178.244 300.439 L 178.195 296.289 180.168 296.289 C 182.578 296.289,182.254 296.102,183.761 298.365 C 184.449 299.399,185.708 301.222,186.559 302.417 L 188.107 304.590 190.491 304.590 L 192.874 304.590 192.462 303.931 C 192.236 303.568,191.760 302.876,191.405 302.393 C 191.050 301.909,190.149 300.657,189.403 299.609 C 188.656 298.562,187.766 297.337,187.424 296.887 C 186.714 295.954,186.696 296.017,187.793 295.601 C 190.849 294.443,192.459 291.448,191.860 288.037 C 191.382 285.315,189.918 283.705,187.000 282.692 L 186.084 282.375 180.039 282.345 L 173.993 282.316 174.059 292.891 M196.374 283.130 C 196.327 286.104,196.416 296.195,196.495 296.875 C 197.114 302.194,201.230 305.404,206.769 304.889 C 211.540 304.445,214.602 301.458,215.134 296.729 C 215.191 296.221,215.233 293.016,215.234 289.136 L 215.234 282.422 213.135 282.422 L 211.035 282.422 211.035 289.298 C 211.035 296.836,211.018 297.106,210.461 298.296 C 208.802 301.841,203.118 301.989,201.277 298.534 C 200.529 297.130,200.563 297.447,200.479 291.260 C 200.437 288.198,200.429 284.935,200.460 284.009 L 200.518 282.324 198.452 282.324 L 196.387 282.324 196.374 283.130 M220.553 282.428 C 220.491 282.528,220.473 304.392,220.535 304.454 C 220.552 304.471,221.486 304.490,222.612 304.496 L 224.658 304.507 224.656 303.670 C 224.654 303.209,224.643 298.218,224.631 292.578 L 224.609 282.324 222.613 282.324 C 221.313 282.324,220.595 282.360,220.553 282.428 M228.906 284.272 L 228.906 286.230 230.746 286.230 C 231.758 286.230,233.384 286.259,234.359 286.295 L 236.133 286.359 236.133 295.474 L 236.133 304.590 238.228 304.590 L 240.322 304.590 240.262 295.395 L 240.203 286.199 243.762 286.269 C 245.719 286.307,247.342 286.317,247.367 286.292 C 247.392 286.268,247.399 285.373,247.384 284.304 L 247.356 282.360 238.131 282.337 L 228.906 282.314 228.906 284.272 M271.093 282.786 C 270.439 284.260,269.103 287.430,267.089 292.285 C 266.565 293.547,265.795 295.349,265.377 296.289 C 264.958 297.229,264.027 299.404,263.307 301.123 C 262.587 302.842,261.975 304.303,261.946 304.370 C 261.906 304.463,262.166 304.495,263.051 304.505 C 263.688 304.513,264.604 304.529,265.088 304.543 C 266.204 304.573,266.338 304.520,266.495 303.989 C 266.563 303.756,266.989 302.698,267.441 301.639 C 267.892 300.579,268.262 299.644,268.262 299.560 C 268.262 299.331,268.158 299.336,273.472 299.278 C 278.174 299.227,278.440 299.233,278.483 299.398 C 278.508 299.493,278.859 300.382,279.263 301.373 C 279.667 302.363,280.115 303.470,280.258 303.832 L 280.518 304.490 282.692 304.491 L 284.866 304.492 284.709 304.126 C 284.623 303.925,284.496 303.606,284.427 303.418 C 284.358 303.230,283.697 301.714,282.959 300.049 C 282.221 298.384,281.211 296.055,280.714 294.873 C 280.218 293.691,279.522 292.080,279.168 291.293 C 278.815 290.506,278.146 288.967,277.682 287.875 C 277.218 286.783,276.540 285.186,276.174 284.326 C 275.808 283.467,275.493 282.676,275.473 282.568 C 275.438 282.381,275.349 282.372,273.368 282.347 L 271.300 282.320 271.093 282.786 M288.204 293.406 L 288.176 304.492 290.279 304.492 L 292.383 304.492 292.383 293.506 C 292.383 287.463,292.394 282.487,292.407 282.446 C 292.421 282.406,291.487 282.361,290.332 282.347 L 288.232 282.321 288.204 293.406 M129.688 293.457 L 129.688 304.492 137.891 304.492 L 146.094 304.492 146.094 302.637 L 146.094 300.781 140.055 300.781 L 134.016 300.781 133.952 298.029 C 133.917 296.516,133.904 295.262,133.923 295.244 C 133.942 295.225,136.380 295.200,139.342 295.188 L 144.727 295.166 144.727 293.348 L 144.727 291.531 141.528 291.492 C 139.769 291.470,137.352 291.475,136.157 291.503 L 133.984 291.553 133.984 288.892 L 133.984 286.230 140.039 286.230 L 146.094 286.230 146.094 284.326 L 146.094 282.422 137.891 282.422 L 129.688 282.422 129.688 293.457 M118.845 286.382 C 120.073 286.672,121.103 287.690,121.240 288.748 C 121.272 289.002,121.314 289.282,121.331 289.370 C 121.451 289.972,121.016 291.071,120.443 291.616 C 119.543 292.470,118.731 292.601,114.564 292.558 L 111.697 292.529 111.662 289.464 C 111.643 287.777,111.650 286.360,111.679 286.314 C 111.777 286.155,118.139 286.216,118.845 286.382 M185.145 286.440 C 187.928 286.949,188.746 290.478,186.440 292.026 C 185.661 292.549,185.306 292.595,181.665 292.649 L 178.320 292.698 178.320 290.505 C 178.320 289.299,178.291 287.836,178.256 287.256 L 178.191 286.200 181.393 286.270 C 183.155 286.308,184.843 286.385,185.145 286.440 M273.738 288.550 C 274.683 290.587,276.758 295.482,276.758 295.674 C 276.758 295.704,276.628 295.702,276.470 295.670 C 276.311 295.638,274.818 295.607,273.151 295.601 C 271.483 295.595,270.096 295.553,270.068 295.507 C 270.011 295.415,270.547 294.069,272.287 289.941 C 272.502 289.431,272.764 288.796,272.870 288.530 C 273.282 287.489,273.245 287.488,273.738 288.550 " stroke="none" fill="#000000" fill-rule="evenodd"></path></g></svg>